<svg width="548" height="393" viewBox="0 0 548 393" fill="none" xmlns="http://www.w3.org/2000/svg">
<path opacity="0.6" d="M318.251 69.5164C283.183 68.3025 249.758 57.0268 217.888 44.6928C186.019 32.3587 154.431 18.6905 120.185 12.1548C98.1664 7.94646 72.9852 7.35458 55.2475 19.1118C38.1746 30.4226 32.6599 49.9494 29.6935 68.0668C27.4625 81.6999 26.1682 96.0453 32.2671 108.811C36.5126 117.669 44.0469 125.117 49.2594 133.604C67.3899 163.133 54.5726 199.548 34.9212 228.404C25.7048 241.947 15.0129 254.833 7.90167 269.234C0.790478 283.634 -2.50323 300.131 3.72158 314.818C9.89099 329.364 24.5868 340.309 40.5114 347.998C72.8542 363.602 110.964 368.066 148.126 370.625C230.388 376.227 313.094 373.8 395.572 371.372C426.097 370.469 456.758 369.561 486.784 364.851C503.459 362.238 520.678 358.095 532.785 348.093C548.151 335.393 551.963 313.895 541.664 297.97C524.39 271.265 476.631 264.629 464.554 235.968C457.911 220.193 464.735 202.618 474.395 187.986C495.109 156.602 529.839 129.065 531.667 93.1863C532.926 68.5433 516.231 43.8702 490.415 32.2083C463.36 19.9745 425.84 21.5194 405.882 41.7384C385.329 62.5694 349.209 70.5847 318.251 69.5164Z" fill="#587EEC"/>
<path d="M122.436 363.953C122.436 363.953 94.7368 343.097 89.5042 316.568C87.3822 305.426 81.6903 295.27 73.2824 287.622C69.2602 284.024 64.9159 280.801 60.304 277.991" stroke="#9AB1F3" stroke-width="2" stroke-miterlimit="10"/>
<path d="M56.9146 261.279C59.342 264.549 60.4399 278.408 60.4399 278.408C60.4399 278.408 47.4615 273.317 45.029 270.051C43.8609 268.482 43.3668 266.514 43.6554 264.581C43.9439 262.649 44.9915 260.91 46.5676 259.746C48.1437 258.583 50.1193 258.091 52.0597 258.378C54.0002 258.665 55.7465 259.709 56.9146 261.279Z" fill="#587EEC"/>
<path d="M80.1922 272.153C80.4441 276.211 73.8113 288.439 73.8113 288.439C73.8113 288.439 65.6878 277.134 65.431 273.076C65.3333 271.141 66.0049 269.246 67.3003 267.801C68.5957 266.357 70.4105 265.478 72.3515 265.357C74.2925 265.236 76.2034 265.881 77.6701 267.153C79.1368 268.425 80.0411 270.221 80.1872 272.153H80.1922Z" fill="#587EEC"/>
<path d="M102.755 303.412C100.921 307.043 88.9905 314.266 88.9905 314.266C88.9905 314.266 87.7163 300.422 89.5495 296.791C90.4519 295.083 91.9914 293.796 93.8368 293.208C95.6821 292.619 97.6857 292.775 99.4164 293.643C101.147 294.511 102.467 296.021 103.091 297.848C103.715 299.675 103.594 301.673 102.755 303.412Z" fill="#587EEC"/>
<path d="M114.484 330.879C113.29 334.766 102.759 343.89 102.759 343.89C102.759 343.89 99.1484 330.462 100.342 326.57C100.916 324.702 102.211 323.138 103.943 322.222C105.674 321.305 107.701 321.111 109.576 321.682C111.451 322.254 113.022 323.543 113.942 325.268C114.863 326.993 115.058 329.011 114.484 330.879Z" fill="#587EEC"/>
<path d="M61.8047 298.271C65.8337 298.812 78.5704 293.084 78.5704 293.084C78.5704 293.084 67.8231 284.216 63.7739 283.674C61.8305 283.414 59.8629 283.934 58.304 285.119C56.7452 286.303 55.7227 288.056 55.4616 289.992C55.2004 291.928 55.722 293.887 56.9116 295.44C58.1012 296.992 59.8613 298.011 61.8047 298.271Z" fill="#587EEC"/>
<path d="M75.9314 330.227C79.9604 329.54 90.3703 320.285 90.3703 320.285C90.3703 320.285 77.4473 315.029 73.4233 315.716C72.4599 315.873 71.5373 316.219 70.7088 316.733C69.8802 317.247 69.1622 317.92 68.5961 318.712C68.0299 319.504 67.6269 320.4 67.4103 321.348C67.1937 322.297 67.1678 323.278 67.3341 324.236C67.5003 325.194 67.8555 326.11 68.379 326.931C68.9026 327.752 69.5842 328.461 70.3844 329.018C71.1847 329.575 72.0877 329.968 73.0415 330.176C73.9953 330.383 74.9809 330.401 75.9415 330.227H75.9314Z" fill="#587EEC"/>
<path d="M93.936 359.414C98.0204 359.414 109.856 352.046 109.856 352.046C109.856 352.046 98.0153 344.687 93.9309 344.687C91.9701 344.687 90.0896 345.463 88.7031 346.844C87.3166 348.225 86.5377 350.098 86.5377 352.051C86.5377 354.004 87.3166 355.876 88.7031 357.257C90.0896 358.638 91.9701 359.414 93.9309 359.414H93.936Z" fill="#587EEC"/>
<path d="M391.523 183.568C391.523 183.568 408.596 153.447 434.331 144.77C445.138 141.195 454.489 134.228 460.983 124.912C464.029 120.458 466.657 115.735 468.835 110.802" stroke="#9AB1F3" stroke-width="2" stroke-miterlimit="10"/>
<path d="M484.991 105.285C482.06 108.114 468.417 111.043 468.417 111.043C468.417 111.043 471.766 97.5501 474.697 94.7161C476.112 93.3969 477.99 92.6837 479.928 92.7301C481.865 92.7765 483.707 93.5788 485.056 94.9642C486.406 96.3497 487.155 98.2075 487.143 100.138C487.131 102.068 486.358 103.916 484.991 105.285Z" fill="#587EEC"/>
<path d="M477.275 129.677C473.246 130.469 460.218 125.544 460.218 125.544C460.218 125.544 470.391 116.014 474.395 115.236C475.356 115.024 476.35 115.005 477.319 115.18C478.288 115.355 479.212 115.722 480.037 116.258C480.861 116.794 481.57 117.488 482.122 118.301C482.673 119.114 483.056 120.028 483.248 120.99C483.44 121.952 483.437 122.942 483.239 123.903C483.041 124.864 482.653 125.775 482.097 126.585C481.54 127.394 480.827 128.084 479.999 128.615C479.171 129.146 478.245 129.507 477.275 129.677Z" fill="#587EEC"/>
<path d="M449.193 156.101C445.336 154.771 436.567 143.957 436.567 143.957C436.567 143.957 450.165 140.857 454.033 142.186C454.962 142.494 455.821 142.981 456.56 143.622C457.298 144.262 457.902 145.042 458.335 145.916C458.768 146.791 459.023 147.742 459.084 148.715C459.145 149.689 459.012 150.664 458.691 151.586C458.371 152.507 457.87 153.356 457.217 154.083C456.565 154.81 455.773 155.4 454.89 155.82C454.006 156.241 453.048 156.482 452.07 156.53C451.092 156.578 450.114 156.432 449.193 156.101Z" fill="#587EEC"/>
<path d="M423.388 171.329C419.359 170.667 408.903 161.462 408.903 161.462C408.903 161.462 421.791 156.116 425.815 156.778C427.752 157.095 429.483 158.165 430.627 159.754C431.771 161.342 432.235 163.318 431.916 165.247C431.598 167.176 430.523 168.9 428.928 170.039C427.334 171.179 425.35 171.641 423.413 171.324L423.388 171.329Z" fill="#587EEC"/>
<path d="M448.841 114.995C448.836 119.063 456.244 130.866 456.244 130.866C456.244 130.866 463.642 119.078 463.642 115.015C463.668 114.033 463.496 113.055 463.136 112.139C462.776 111.224 462.236 110.389 461.547 109.685C460.858 108.981 460.035 108.421 459.126 108.039C458.216 107.657 457.239 107.46 456.252 107.46C455.265 107.46 454.287 107.657 453.378 108.039C452.468 108.421 451.645 108.981 450.956 109.685C450.267 110.389 449.727 111.224 449.367 112.139C449.007 113.055 448.835 114.033 448.861 115.015L448.841 114.995Z" fill="#587EEC"/>
<path d="M418.91 133.183C420.129 137.065 430.725 146.119 430.725 146.119C430.725 146.119 434.251 132.666 433.022 128.784C432.385 126.985 431.071 125.503 429.359 124.649C427.646 123.796 425.668 123.637 423.84 124.207C422.013 124.778 420.478 126.032 419.561 127.706C418.643 129.38 418.414 131.344 418.92 133.183H418.91Z" fill="#587EEC"/>
<path d="M392.284 154.837C392.828 158.849 401.732 169.568 401.732 169.568C401.732 169.568 407.478 156.903 406.934 152.875C406.826 151.899 406.523 150.955 406.044 150.097C405.564 149.24 404.917 148.486 404.14 147.881C403.364 147.276 402.474 146.832 401.522 146.575C400.571 146.318 399.577 146.253 398.6 146.384C397.623 146.514 396.683 146.838 395.833 147.337C394.984 147.835 394.243 148.497 393.654 149.285C393.066 150.073 392.641 150.969 392.406 151.923C392.171 152.876 392.129 153.867 392.284 154.837Z" fill="#587EEC"/>
<path opacity="0.25" d="M484.991 105.285C482.06 108.114 468.417 111.043 468.417 111.043C468.417 111.043 471.766 97.5501 474.697 94.7161C476.112 93.3969 477.99 92.6837 479.928 92.7301C481.865 92.7765 483.707 93.5788 485.056 94.9642C486.406 96.3497 487.155 98.2075 487.143 100.138C487.131 102.068 486.358 103.916 484.991 105.285Z" fill="black"/>
<path opacity="0.25" d="M477.275 129.677C473.246 130.469 460.218 125.544 460.218 125.544C460.218 125.544 470.391 116.014 474.395 115.236C475.356 115.024 476.35 115.005 477.319 115.18C478.288 115.355 479.212 115.722 480.037 116.258C480.861 116.794 481.57 117.488 482.122 118.301C482.673 119.114 483.056 120.028 483.248 120.99C483.44 121.952 483.437 122.942 483.239 123.903C483.041 124.864 482.653 125.775 482.097 126.585C481.54 127.394 480.827 128.084 479.999 128.615C479.171 129.146 478.245 129.507 477.275 129.677Z" fill="black"/>
<path opacity="0.25" d="M449.193 156.101C445.336 154.771 436.567 143.957 436.567 143.957C436.567 143.957 450.165 140.857 454.033 142.186C454.962 142.494 455.821 142.981 456.56 143.622C457.298 144.262 457.902 145.042 458.335 145.916C458.768 146.791 459.023 147.742 459.084 148.715C459.145 149.689 459.012 150.664 458.691 151.586C458.371 152.507 457.87 153.356 457.217 154.083C456.565 154.81 455.773 155.4 454.89 155.82C454.006 156.241 453.048 156.482 452.07 156.53C451.092 156.578 450.114 156.432 449.193 156.101Z" fill="black"/>
<path opacity="0.25" d="M423.388 171.329C419.359 170.667 408.903 161.462 408.903 161.462C408.903 161.462 421.791 156.116 425.815 156.778C427.752 157.095 429.483 158.165 430.627 159.754C431.771 161.342 432.235 163.318 431.916 165.247C431.598 167.176 430.523 168.9 428.928 170.039C427.334 171.179 425.35 171.641 423.413 171.324L423.388 171.329Z" fill="black"/>
<path opacity="0.25" d="M448.841 114.995C448.836 119.063 456.244 130.866 456.244 130.866C456.244 130.866 463.642 119.078 463.642 115.015C463.668 114.033 463.496 113.055 463.136 112.139C462.776 111.224 462.236 110.389 461.547 109.685C460.858 108.981 460.035 108.421 459.126 108.039C458.216 107.657 457.239 107.46 456.252 107.46C455.265 107.46 454.287 107.657 453.378 108.039C452.468 108.421 451.645 108.981 450.956 109.685C450.267 110.389 449.727 111.224 449.367 112.139C449.007 113.055 448.835 114.033 448.861 115.015L448.841 114.995Z" fill="black"/>
<path opacity="0.25" d="M418.91 133.183C420.129 137.065 430.725 146.119 430.725 146.119C430.725 146.119 434.251 132.666 433.022 128.784C432.385 126.985 431.071 125.503 429.359 124.649C427.646 123.796 425.668 123.637 423.84 124.207C422.013 124.778 420.478 126.032 419.561 127.706C418.643 129.38 418.414 131.344 418.92 133.183H418.91Z" fill="black"/>
<path opacity="0.25" d="M392.284 154.837C392.828 158.849 401.732 169.568 401.732 169.568C401.732 169.568 407.478 156.903 406.934 152.875C406.826 151.899 406.523 150.955 406.044 150.097C405.564 149.24 404.917 148.486 404.14 147.881C403.364 147.276 402.474 146.832 401.522 146.575C400.571 146.318 399.577 146.253 398.6 146.384C397.623 146.514 396.683 146.838 395.833 147.337C394.984 147.835 394.243 148.497 393.654 149.285C393.066 150.073 392.641 150.969 392.406 151.923C392.171 152.876 392.129 153.867 392.284 154.837Z" fill="black"/>
<path d="M392.505 182.971C392.505 182.971 395.859 148.542 415.833 130.234C424.258 122.604 429.972 112.46 432.12 101.322C433.098 96.0275 433.585 90.6546 433.576 85.2713" stroke="#9AB1F3" stroke-width="2" stroke-miterlimit="10"/>
<path d="M446.096 73.6545C444.585 77.4264 433.284 85.6124 433.284 85.6124C433.284 85.6124 430.856 71.924 432.382 68.1521C433.117 66.3409 434.544 64.8945 436.349 64.1312C438.155 63.3678 440.191 63.35 442.009 64.0817C443.828 64.8134 445.28 66.2346 446.046 68.0326C446.813 69.8307 446.831 71.8584 446.096 73.6696V73.6545Z" fill="#587EEC"/>
<path d="M448.972 99.095C445.633 101.432 431.697 102.2 431.697 102.2C431.697 102.2 437.126 89.3893 440.465 87.0519C441.257 86.4617 442.16 86.0356 443.12 85.7991C444.08 85.5626 445.078 85.5203 446.055 85.6749C447.032 85.8294 447.968 86.1776 448.807 86.6988C449.647 87.2201 450.372 87.9037 450.942 88.7093C451.511 89.5149 451.912 90.4261 452.121 91.3888C452.331 92.3516 452.344 93.3465 452.16 94.3144C451.976 95.2824 451.6 96.2038 451.052 97.0241C450.504 97.8444 449.797 98.5469 448.972 99.09V99.095Z" fill="#587EEC"/>
<path d="M434.034 134.597C429.965 134.938 417.546 128.578 417.546 128.578C417.546 128.578 428.726 120.252 432.795 119.911C434.75 119.747 436.689 120.363 438.187 121.624C439.685 122.884 440.619 124.686 440.783 126.632C440.947 128.578 440.329 130.51 439.063 132.002C437.797 133.494 435.988 134.424 434.034 134.587V134.597Z" fill="#587EEC"/>
<path d="M416.654 158.919C412.701 159.923 399.385 155.774 399.385 155.774C399.385 155.774 408.989 145.688 412.942 144.664C414.84 144.174 416.856 144.455 418.546 145.445C420.237 146.435 421.463 148.053 421.955 149.943C422.447 151.834 422.165 153.841 421.171 155.525C420.177 157.208 418.552 158.429 416.654 158.919Z" fill="#587EEC"/>
<path d="M417.007 97.1488C418.659 100.866 430.212 108.685 430.212 108.685C430.212 108.685 432.176 94.9218 430.524 91.205C429.701 89.4661 428.228 88.1167 426.419 87.4453C424.61 86.7738 422.609 86.8336 420.844 87.6117C419.079 88.3898 417.69 89.8246 416.973 91.6095C416.256 93.3944 416.268 95.3879 417.007 97.1639V97.1488Z" fill="#587EEC"/>
<path d="M397.043 125.85C399.737 128.904 413.104 132.907 413.104 132.907C413.104 132.907 410.847 119.189 408.153 116.134C407.517 115.392 406.739 114.783 405.865 114.343C404.991 113.903 404.037 113.64 403.06 113.57C402.083 113.5 401.102 113.624 400.173 113.935C399.245 114.246 398.388 114.738 397.652 115.381C396.915 116.025 396.315 116.808 395.886 117.685C395.456 118.562 395.205 119.515 395.149 120.489C395.092 121.463 395.23 122.438 395.556 123.359C395.881 124.279 396.386 125.126 397.043 125.85Z" fill="#587EEC"/>
<path d="M381.486 156.406C383.621 159.867 396.116 166.062 396.116 166.062C396.116 166.062 396.222 152.163 394.102 148.697C393.046 147.097 391.407 145.969 389.53 145.552C387.654 145.136 385.688 145.464 384.05 146.467C382.413 147.47 381.232 149.068 380.758 150.924C380.284 152.78 380.554 154.746 381.511 156.406H381.486Z" fill="#587EEC"/>
<path d="M366.82 48.1388C367.656 45.0841 368.664 42.0144 369.369 38.9196C368.523 42.0144 367.51 45.0941 366.82 48.1388Z" fill="url(#paint0_linear_4_6)"/>
<path d="M363.073 77.5619C363.003 77.4415 362.953 77.3211 362.897 77.2108C362.897 77.1606 362.847 77.1205 362.827 77.0703C362.717 77.1219 362.604 77.1671 362.489 77.2058C362.268 77.291 362.041 77.3713 361.809 77.4365C361.578 77.5017 361.482 77.5368 361.306 77.5769C361.16 77.6271 361.01 77.6656 360.857 77.6923L360.898 77.7826C361.084 77.7425 361.265 77.7073 361.452 77.6572L361.502 78.2792C361.714 78.2792 361.91 78.2491 362.101 78.2491C362.192 78.2441 362.283 78.2441 362.373 78.2491C362.766 78.2491 363.109 78.2491 363.381 78.2491C363.275 78.0233 363.164 77.7876 363.073 77.5619ZM465.309 239.64C462.942 236.465 458.218 202.387 458.218 202.387C458.218 202.387 448.926 178.155 451.46 168.485C453.993 158.814 444.54 134.071 444.54 134.071C444.54 134.071 438.295 131.367 437.957 127.354C437.957 127.354 412.459 119.329 411.265 113.31C410.298 108.374 394.484 104.833 388.804 103.715C387.071 96.7526 385.329 90.2571 384.044 86.7108C383.697 85.6074 383.369 84.6543 383.067 83.9019C380.897 78.3845 374.188 77.8829 369.323 78.3243C369.113 77.3839 368.721 76.4931 368.17 75.701C368.09 75.4287 367.93 75.1861 367.712 75.0038C367.607 74.9152 367.496 74.8347 367.379 74.763C367.291 74.6005 367.175 74.4545 367.037 74.3316C366.899 74.2077 366.747 74.1 366.584 74.0106C366.467 73.9476 366.345 73.8923 366.221 73.8451C365.929 73.7344 365.627 73.6521 365.32 73.5993C364.961 73.5259 364.597 73.4789 364.232 73.4589C365.121 73.0716 365.913 72.4946 366.553 71.7685C366.989 71.2588 367.313 70.6644 367.505 70.023C367.665 69.4896 367.736 68.934 367.717 68.3778C367.586 68.607 367.434 68.8236 367.264 69.0249C367.475 66.8028 366.297 64.5457 365.622 62.3337C364.804 59.454 364.652 56.4271 365.178 53.4806C365.853 49.0366 367.525 44.5424 368.659 40.018C368.661 39.993 368.661 39.9678 368.659 39.9428C369.253 37.6959 369.621 35.3956 369.756 33.0761C369.953 28.3962 368.749 23.7265 366.815 19.463C365.098 15.686 362.565 11.9692 358.687 10.4344C355.806 9.27571 352.578 9.4613 349.475 9.2707C342.515 8.83933 335.878 6.40162 329.26 4.1846C322.642 1.96758 315.833 -0.0488042 308.868 0.337418C301.903 0.723641 294.736 4.06923 291.559 10.2087C290.551 12.1247 289.972 14.2565 288.768 16.0572C286.512 19.4529 282.473 21.1533 279.104 23.4957C275.735 25.8381 272.768 29.1637 271.55 33.1312C270.884 35.2688 270.79 37.5424 271.278 39.7271C271.387 40.2205 271.529 40.7064 271.701 41.1817C272.179 42.507 272.924 43.7208 273.891 44.748C274.621 45.5072 275.459 46.1546 276.379 46.6691C277.535 47.3069 278.771 47.7861 280.056 48.0936C280.01 48.2441 279.965 48.4046 279.915 48.5601C279.834 48.8159 279.764 49.0617 279.688 49.3375C279.522 49.9545 279.366 50.5815 279.235 51.2135C279.23 51.2585 279.23 51.3039 279.235 51.3489C278.616 54.2019 278.306 57.1126 278.308 60.0314C278.307 61.4118 278.378 62.7913 278.52 64.1645C280.534 84.5189 297.406 100.575 318.251 101.618C318.966 101.653 319.686 101.673 320.416 101.673C320.749 101.673 321.076 101.673 321.424 101.673C321.751 102.105 322.073 102.546 322.38 102.977C322.688 103.409 322.97 103.85 323.237 104.281L322.506 103.529L321.776 102.862C321.578 103.133 321.357 103.386 321.116 103.619C320.64 103.453 320.154 103.315 319.661 103.208C317.571 102.747 314.388 102.576 310.198 103.835C306.345 104.984 301.636 107.346 296.126 111.835L269.278 127.886L254.754 136.684L249.521 149.424C249.521 149.424 245.588 164.562 241.211 181.907C241.04 181.957 240.874 182.008 240.708 182.068C240.353 182.028 239.997 182.007 239.64 182.008C237.101 182.002 234.658 182.976 232.825 184.726C230.992 186.476 229.911 188.865 229.809 191.392C221.106 201.926 220.613 212.459 222.658 217.294C222.843 217.747 223.076 218.179 223.353 218.583C224.692 220.509 227.195 225.475 229.734 230.767C229.668 231.203 229.628 231.569 229.608 231.845C229.603 231.936 229.603 232.026 229.608 232.116C229.608 232.116 231.118 254.843 226.082 261.359C224.979 262.778 225.145 264.644 226.082 266.711C229.457 274.144 242.798 284.071 242.798 284.071C242.798 284.071 258.798 283.985 267.712 283.017C267.687 283.91 267.667 284.798 267.646 285.666C267.445 294.433 267.445 301.782 267.445 301.782L267.113 310.976C267.113 310.976 264.091 330.352 262.58 335.694C261.628 339.045 262.726 370.068 263.683 392.875H421.328C423.181 379.382 420.567 338.388 420.567 338.388C420.567 338.388 418.084 327.789 417.994 318.55C417.989 318.54 417.986 318.528 417.986 318.517C417.986 318.506 417.989 318.495 417.994 318.485C417.994 317.677 417.994 316.889 418.024 316.117L419.167 316.077L421.222 316.007H421.408C421.408 316.007 421.459 315.816 421.574 315.505C421.846 314.73 422.217 313.994 422.677 313.313C423.554 312.024 424.924 310.76 426.983 310.675C428.122 310.63 429.884 309.712 431.874 308.357C431.887 308.36 431.901 308.36 431.914 308.357C437.267 304.751 444.343 298.095 446.061 297.002C448.423 295.497 459.734 285.465 459.734 285.465C459.734 285.465 461.421 283.338 463.219 280.775L463.285 280.685C465.521 277.475 467.898 273.638 467.314 272.429C466.306 270.262 467.989 265.081 467.989 265.081C473.241 255.505 467.676 242.815 465.309 239.64ZM367.923 85.3616C367.972 85.5113 368.002 85.6662 368.014 85.823C367.888 85.6575 367.762 85.4819 367.636 85.3214L367.515 85.1609L367.43 85.0406L367.621 84.7797C367.621 84.7797 367.621 84.7797 367.621 84.8148C367.754 84.9775 367.856 85.1627 367.923 85.3616ZM366.231 80.9175C365.682 81.0279 365.249 81.1282 364.967 81.2034C364.609 80.5714 364.267 79.9394 363.96 79.2974C364.767 79.7639 365.528 80.3064 366.231 80.9175ZM365.284 81.71C365.283 81.7 365.283 81.6899 365.284 81.6799L365.325 81.71C365.531 81.8454 365.733 81.9759 365.919 82.1113C366.085 82.2317 366.236 82.347 366.387 82.4674C366.286 82.643 366.176 82.8235 366.065 82.969C365.889 82.6931 365.722 82.4273 365.561 82.1514C365.461 82.0411 365.37 81.8906 365.284 81.71ZM362.263 75.5204C363.236 75.4248 364.216 75.4248 365.189 75.5204C365.325 75.5204 365.445 75.5455 365.566 75.5656C365.839 75.6076 366.108 75.6765 366.367 75.7712C366.962 76.6005 367.329 77.5707 367.43 78.5851L367.158 78.6253L366.891 78.6754C366.387 78.7607 365.884 78.8459 365.491 78.9262L364.987 79.0315C364.317 79.177 363.93 79.2873 363.914 79.2924C363.849 79.1569 363.783 79.0315 363.713 78.9011C363.602 78.6854 363.486 78.4647 363.386 78.2491C363.285 78.0334 363.154 77.7876 363.048 77.5619C362.978 77.4415 362.927 77.3211 362.872 77.2108C362.872 77.1606 362.822 77.1205 362.801 77.0703C362.772 77.0171 362.747 76.9618 362.726 76.9048C362.419 76.2828 362.137 75.6609 361.865 75.0489C361.834 74.9887 361.809 74.9235 361.784 74.8633L362.167 74.8383V74.9687L362.263 75.5204ZM242.103 386.675C242.062 379.207 241.518 371.126 240.007 363.542C239.363 360.317 238.698 357.092 238.023 353.922C237.852 353.129 237.686 352.347 237.52 351.564L235.968 351.77H235.827C231.597 331.902 227.175 314.397 227.175 314.397C227.175 314.397 218.392 280.996 219.409 278.332C219.54 277.986 219.374 277.053 219.001 275.684C216.876 268.09 208.002 247.164 204.9 240.011C204.9 239.981 204.875 239.946 204.864 239.921C204.361 238.722 203.998 237.914 203.887 237.679L204.618 227.005L204.658 226.363L204.754 224.999L204.713 224.963L204.754 224.331C204.754 224.331 197.089 218.072 184.105 213.552C183.601 213.372 183.068 213.196 182.539 213.026C183.188 208.707 184.05 203.832 185.173 199.082C185.279 198.605 185.394 198.144 185.515 197.677C185.621 197.211 185.742 196.759 185.863 196.303C186.054 195.56 186.261 194.828 186.472 194.106C187.172 193.885 187.862 193.639 188.542 193.379L188.804 193.278C197.18 190.032 204.091 183.874 208.257 175.943C212.424 168.012 213.564 158.846 211.467 150.142C210.271 145.205 208.063 140.569 204.98 136.524C204.749 136.213 204.502 135.902 204.255 135.596C204.008 135.29 203.711 134.949 203.434 134.638C204.89 131.342 206.607 128.207 206.748 125.002C206.773 124.596 206.773 124.189 206.748 123.783V123.733C206.562 121.672 205.645 119.585 203.51 117.393C200.392 114.178 195.955 112.548 191.518 111.765C187.081 110.983 182.559 110.963 178.097 110.436C170.699 109.553 163.492 107.281 156.093 106.584C146.981 105.743 137.806 107.3 129.487 111.098C123.982 113.606 118.407 117.99 118.075 124.004C117.803 128.975 121.278 133.74 120.401 138.65C119.53 143.476 114.595 147.273 115.028 152.153C115.194 154.059 116.176 155.764 117.405 157.284C117.828 157.786 118.276 158.287 118.74 158.789C120.532 160.68 122.507 162.496 123.509 164.878C123.549 164.979 123.589 165.079 123.625 165.179C124.476 167.532 124.093 170.506 121.988 171.855C122 171.864 122.008 171.877 122.013 171.89C122.043 171.931 122.074 171.961 122.099 172.001C122.102 171.993 122.102 171.984 122.099 171.976C122.845 172.857 123.851 173.482 124.974 173.761L125.402 173.892C125.055 174.268 124.728 174.659 124.395 175.071L124.179 175.356C123.624 176.1 123.119 176.879 122.668 177.689C122.411 178.14 122.164 178.592 121.958 179.043C121.267 180.419 120.768 181.882 120.472 183.392C119.933 186.712 120.694 190.173 119.878 193.424C118.87 197.436 115.683 200.516 113.885 204.243C110.48 211.265 112.409 219.506 113.094 227.261C114.026 237.794 112.515 248.373 111.009 258.836C110.21 264.4 109.411 269.969 108.612 275.544C106.597 289.535 104.583 303.526 102.568 317.516C101.833 322.643 100.962 328.05 97.5319 332.007H97.5671C97.5671 332.007 97.5671 332.037 97.5319 332.047C98.5614 332.496 99.6564 332.777 100.775 332.88C105.252 333.327 109.997 331.17 114.026 328.812C117.216 326.976 120.238 324.863 123.056 322.497C122.643 324.002 122.199 325.642 121.726 327.408C121.728 327.424 121.728 327.441 121.726 327.458C116.04 349.026 106.894 388.566 106.894 388.566C106.894 388.566 106.063 390.287 104.986 392.85H247.008C245.346 390.844 243.8 388.923 242.591 387.373L242.103 386.675ZM136.946 187.244C136.981 187.184 137.006 187.129 137.041 187.074C137.041 187.234 137.041 187.39 137.041 187.54C137.041 187.69 137.041 187.826 137.041 187.966C137.041 188.107 137.041 188.092 137.041 188.162C137.041 188.232 137.041 188.162 137.041 188.162C137.041 188.368 136.996 188.573 136.961 188.779C136.961 188.779 136.961 188.804 136.961 188.824L137.464 189.01L138.049 189.25C141.5 190.608 144.995 191.837 148.534 192.937C148.897 193.052 149.264 193.163 149.632 193.268L149.707 193.89C149.798 194.527 149.884 195.174 149.964 195.821C149.964 195.821 149.964 195.851 149.964 195.871C150.191 197.662 150.413 199.448 150.609 201.193C150.609 201.193 141.362 197.682 141.478 203.014C141.473 203.109 141.473 203.205 141.478 203.3C141.468 203.427 141.468 203.554 141.478 203.681C141.564 207.834 142.868 210.297 143.13 211.561C143.114 211.613 143.087 211.661 143.05 211.702C142.826 212.186 142.749 212.724 142.828 213.251C142.819 214.149 142.89 215.045 143.039 215.93C142.767 216.095 142.501 216.261 142.234 216.431C142.032 216.557 141.841 216.697 141.644 216.838C140.409 212.57 138.793 208.42 136.815 204.439C135.43 201.6 133.873 198.64 133.889 195.525C133.889 195.325 133.889 195.119 133.914 194.913C133.97 194.011 134.143 193.119 134.427 192.26C134.543 191.934 134.669 191.613 134.81 191.297C135.139 190.546 135.507 189.813 135.913 189.1C136.175 188.628 136.452 188.162 136.719 187.691C136.805 187.55 136.885 187.405 136.966 187.264L136.946 187.244ZM363.073 77.5619C363.003 77.4415 362.953 77.3211 362.897 77.2108C362.897 77.1606 362.847 77.1205 362.827 77.0703C362.717 77.1219 362.604 77.1671 362.489 77.2058C362.268 77.291 362.041 77.3713 361.809 77.4365C361.578 77.5017 361.482 77.5368 361.306 77.5769L360.857 77.6923L360.898 77.7826C361.084 77.7425 361.265 77.7073 361.452 77.6572L361.502 78.2792C361.714 78.2792 361.91 78.2491 362.101 78.2491H362.373C362.766 78.2491 363.109 78.2491 363.381 78.2491C363.275 78.0233 363.164 77.7876 363.073 77.5619Z" fill="url(#paint1_linear_4_6)"/>
<path d="M253.031 151.235L250.01 152.564C250.01 152.564 230.313 228.776 230.313 234.935C230.313 241.095 272.078 275.368 272.078 275.368L278.595 231.559C278.595 231.559 269.238 131.096 253.031 151.235Z" fill="#E8F5FF"/>
<path d="M344.646 126.993L327.195 117.925C326.218 113.775 324.483 109.839 322.078 106.313C319.525 102.641 316.13 99.0348 311.9 97.1539C301.208 92.3788 357.125 67.3144 357.125 67.3144C358.006 70.3254 359.043 73.2887 360.233 76.1925C363.114 83.2749 367.893 92.4339 374.052 95.0422C384.523 99.4812 344.646 126.993 344.646 126.993Z" fill="#FFB0B1"/>
<path opacity="0.1" d="M360.233 76.1925C357.844 84.5615 352.875 91.9715 346.029 97.3761C339.183 102.781 330.805 105.907 322.078 106.313C319.525 102.641 316.13 99.0348 311.9 97.1539C301.208 92.3788 357.125 67.3144 357.125 67.3144C358.006 70.3254 359.043 73.2887 360.233 76.1925Z" fill="black"/>
<path d="M361.804 63.5375C361.806 71.7453 359.364 79.7694 354.787 86.5949C350.21 93.4203 343.703 98.7406 336.09 101.883C328.476 105.025 320.098 105.848 312.015 104.247C303.932 102.647 296.507 98.6951 290.68 92.8916C284.852 87.0882 280.883 79.6938 279.275 71.6437C277.667 63.5936 278.492 55.2494 281.646 47.6664C284.8 40.0834 290.141 33.6023 296.994 29.0428C303.847 24.4833 311.903 22.0502 320.144 22.0512C325.622 22.0259 331.05 23.0817 336.116 25.1576C341.181 27.2335 345.784 30.2883 349.657 34.1457C353.531 38.003 356.598 42.5864 358.683 47.6312C360.768 52.6759 361.829 58.0821 361.804 63.5375Z" fill="#FFB0B1"/>
<path d="M367.817 121.666L356.456 148.07L346.434 165.595H314.353L304.995 141.635L308.788 116.786H333.289L349.108 115.898L354.451 114.123L357.896 116.069L367.817 121.666Z" fill="#575A89"/>
<path opacity="0.1" d="M363.904 86.47C363.904 86.47 370.99 87.9748 364.645 93.1562C358.299 98.3376 336.406 114.815 336.406 114.815C336.406 114.815 344.097 121.636 342.505 129.627L367.984 115.482L372.516 92.8502C372.516 92.8502 373.025 86.0487 363.904 86.47Z" fill="black"/>
<path opacity="0.1" d="M341.417 114.815L325.211 117.478C325.211 117.478 328.555 129.792 326.883 133.288C326.832 133.397 326.79 133.509 326.757 133.624L320.144 151.426L325.1 165.405L342.253 142.106L336.406 133.288C336.406 133.288 342.586 125.133 346.262 122.304C349.939 119.475 341.417 114.815 341.417 114.815Z" fill="black"/>
<path d="M341.417 114.128L325.211 116.786C325.211 116.786 328.555 129.1 326.883 132.596C326.832 132.705 326.79 132.817 326.757 132.932L320.144 150.733L325.1 164.713L342.253 141.399L336.406 132.581C336.406 132.581 342.586 124.425 346.262 121.596C349.939 118.767 341.417 114.128 341.417 114.128Z" fill="#DCE6F2"/>
<path d="M364.584 85.1408C364.584 85.1408 371.67 86.6456 365.32 91.827C358.969 97.0084 336.406 114.815 336.406 114.815C336.406 114.815 344.762 120.307 343.175 128.292L368.654 114.153L373.186 91.521C373.186 91.521 373.69 84.7195 364.584 85.1408Z" fill="#575A89"/>
<path opacity="0.1" d="M323.191 107.883C323.191 107.883 324.738 110.762 331.562 115.953C331.562 115.953 320.2 121.972 324.546 130.434L307.166 125.92L304.492 117.599L323.191 107.883Z" fill="black"/>
<path d="M322.521 107.221C322.521 107.221 324.067 110.1 330.892 115.291C330.892 115.291 319.53 121.28 323.876 129.767L306.501 125.253L303.827 116.937L322.521 107.221Z" fill="#575A89"/>
<path opacity="0.1" d="M367.817 121.667L356.456 148.07L346.454 165.596H314.353L304.995 141.635L308.783 116.786H315.597C315.486 122.584 317.611 129.396 317.475 131.929C317.243 136.092 323.71 158.553 323.71 158.553C323.71 158.553 337.242 136.754 342.586 134.813C345.945 133.594 353.061 123.452 357.891 116.069L367.817 121.667Z" fill="black"/>
<path d="M412.575 260.611L411.421 262.056C411.421 262.056 419.777 303.823 417.465 313.308C417.072 315.018 416.848 316.762 416.795 318.515V318.59C416.387 328.24 419.313 340.765 419.313 340.765C419.313 340.765 421.65 377.682 420.32 392.865H263.884C262.968 370.414 261.981 341.327 262.877 338.102C264.388 332.78 267.41 313.474 267.41 313.474L267.742 304.325C267.742 304.325 267.742 295.482 268.014 285.631C268.13 281.202 268.301 276.552 268.548 272.429C268.865 267.242 269.308 262.874 269.918 260.727C270.293 259.1 270.509 257.44 270.562 255.771C270.562 255.616 270.562 255.455 270.593 255.295C270.593 254.793 270.643 254.251 270.663 253.695C270.663 253.539 270.663 253.384 270.663 253.193C270.759 249.963 270.724 246.131 270.618 242.158C270.618 241.942 270.618 241.722 270.618 241.501C270.532 238.521 270.406 235.482 270.265 232.593C269.827 223.564 269.258 215.93 269.258 215.93L250.045 152.529L255.222 139.829L269.59 131.061L296.157 115.086C309.115 104.477 317.646 105.751 320.9 106.915C321.216 107.022 321.525 107.148 321.826 107.291C321.927 107.341 322.008 107.381 322.083 107.426C322.187 107.475 322.286 107.532 322.38 107.597C321.49 108.024 320.716 108.659 320.124 109.448C319.458 110.346 318.983 111.37 318.729 112.457C318.559 113.131 318.439 113.817 318.372 114.509C318.306 115.236 318.281 115.989 318.281 116.746C318.317 118.407 318.46 120.064 318.709 121.707C318.709 121.737 318.709 121.777 318.709 121.817C318.875 122.991 319.082 124.139 319.283 125.218C319.281 125.236 319.281 125.255 319.283 125.273C319.515 126.532 319.747 127.696 319.903 128.699C319.933 128.879 319.958 129.045 319.983 129.2C320.094 129.863 320.146 130.535 320.139 131.207C320.196 132.83 320.415 134.443 320.794 136.022C320.925 136.684 321.076 137.391 321.242 138.129C321.469 139.132 321.716 140.225 321.983 141.339C322.129 141.951 322.285 142.583 322.446 143.21C322.506 143.461 322.572 143.711 322.632 143.967L322.733 144.363C323.806 148.612 324.969 152.84 325.684 155.398C326.107 156.903 326.374 157.831 326.374 157.831C326.374 157.831 333.959 145.617 340.012 138.665C340.103 138.565 340.184 138.47 340.269 138.379C340.869 137.692 341.458 137.065 342.022 136.514C343.256 135.29 344.364 134.417 345.255 134.096C345.445 134.026 345.629 133.941 345.804 133.84C348.282 132.441 352.281 127.36 356.023 122.038C356.39 121.536 356.748 120.989 357.11 120.473C357.941 119.279 358.747 118.08 359.508 116.932C360.092 116.054 360.651 115.201 361.18 114.389C363.698 110.486 365.471 107.577 365.471 107.577L368.966 107.421L369.575 107.391H369.983L385.852 106.659C385.852 106.659 386.537 106.774 387.665 107C387.726 107 387.786 107 387.852 107.04C393.482 108.154 409.125 111.68 410.082 116.57C411.25 122.559 436.482 130.55 436.482 130.55C436.814 134.562 442.994 137.206 442.994 137.206C442.994 137.206 452.351 161.834 449.848 171.484C447.375 181.014 456.284 204.589 456.521 205.251L454.814 207.398L412.575 260.611Z" fill="#E8F5FF"/>
<path opacity="0.1" d="M363.899 84.7196C363.899 84.7196 379.345 80.3558 382.856 89.3392C386.366 98.3227 394.218 134.602 394.218 134.602C394.218 134.602 373.831 138.43 368.487 134.602C365.353 132.331 361.474 131.321 357.624 131.774L346.096 139.593L342.692 138.59C342.692 138.59 361.134 111.284 365.143 102.004C369.152 92.7249 370.507 88.5768 363.899 84.7196Z" fill="black"/>
<path d="M363.23 82.7132C363.23 82.7132 378.686 78.3494 382.211 87.3328C385.737 96.3163 393.573 132.596 393.573 132.596C393.573 132.596 373.191 136.423 367.843 132.596C364.71 130.325 360.833 129.314 356.985 129.767L345.447 137.587L342.042 136.584C342.042 136.584 360.485 109.277 364.494 99.9979C368.502 90.7185 369.837 86.5804 363.23 82.7132Z" fill="#E8F5FF"/>
<path opacity="0.1" d="M259.548 227.446C259.548 227.446 271.076 230.275 273.252 236.766C275.428 243.256 264.731 243.422 264.731 243.422C264.731 243.422 258.214 231.941 259.548 227.446Z" fill="black"/>
<path opacity="0.1" d="M302.487 275.368C302.487 275.368 274.254 332.945 280.771 338.438C287.288 343.93 302.487 275.368 302.487 275.368Z" fill="black"/>
<path opacity="0.1" d="M341.417 232.939C341.417 232.939 363.975 288.866 359.462 297.503C354.95 306.141 369.152 297.503 369.152 297.503L341.417 232.939Z" fill="black"/>
<path d="M372.829 288.184C372.829 288.184 296.64 291.845 318.865 315.475C341.09 339.105 386.699 316.478 386.699 316.478L372.829 288.184Z" fill="#FFB0B1"/>
<path opacity="0.1" d="M361.804 63.5374C361.811 68.9797 360.738 74.3697 358.647 79.3976C357.947 79.4778 357.247 79.528 356.572 79.5581C355.564 77.3561 356.103 74.8131 356.123 72.3904C356.144 69.9677 355.247 67.1187 352.905 66.4667C348.237 65.1575 345.013 73.85 340.41 72.2801C336.885 71.0863 337.807 65.7594 335.777 62.6847C334.17 60.252 330.952 59.5648 328.449 58.04C323.126 54.7847 323.287 49.5782 320.814 44.6526C318.226 39.4913 312.756 41.0161 308.007 44.0607C304.401 46.3781 301.289 49.4829 297.431 51.3287C294.092 52.9338 290.34 53.5157 286.638 53.6009C284.359 53.6889 282.08 53.449 279.87 52.8887C282.469 43.1548 288.535 34.6949 296.935 29.0867C305.336 23.4784 315.498 21.1047 325.526 22.4081C335.554 23.7115 344.764 28.603 351.438 36.1706C358.112 43.7382 361.795 53.4651 361.799 63.5374H361.804Z" fill="black"/>
<path d="M308.022 42.7317C304.411 45.049 301.304 48.1488 297.446 50.0047C294.107 51.6047 290.355 52.1866 286.653 52.2719C282.121 52.3722 277.241 51.5797 274.143 48.3193C271.298 45.3098 270.618 40.6802 271.822 36.7327C273.025 32.7852 275.911 29.5098 279.3 27.1373C282.69 24.7648 286.623 23.1246 288.869 19.7288C290.058 17.9332 290.632 15.8165 291.619 13.9054C294.777 7.79104 301.878 4.48056 308.742 4.06926C315.607 3.65796 322.411 5.69441 328.948 7.90139C335.485 10.1084 342.072 12.5361 348.972 12.9925C352.044 13.1831 355.237 12.9925 358.088 14.1512C361.92 15.7011 364.433 19.4078 366.146 23.1798C368.064 27.4332 369.258 32.0779 369.057 36.7226C368.634 46.639 362.056 56.3698 364.947 65.8699C365.713 68.4029 367.148 71.0011 366.382 73.5342C365.264 77.2309 360.475 78.0735 356.602 78.2491C355.595 76.0471 356.134 73.4991 356.154 71.0814C356.174 68.6637 355.277 65.8097 352.941 65.1576C348.267 63.8585 345.044 72.536 340.451 70.9711C336.951 69.7723 337.857 64.4504 335.822 61.3757C334.216 58.938 330.993 58.2558 328.495 56.731C323.171 53.4757 323.332 48.2692 320.86 43.3436C318.251 38.1572 312.776 39.682 308.022 42.7317Z" fill="#575A89"/>
<path d="M234.145 233.601L230.303 234.935C230.303 234.935 231.813 257.567 226.777 264.057C221.741 270.548 243.316 286.684 243.316 286.684C243.316 286.684 272.889 286.518 273.725 284.176C274.561 281.834 272.214 242.243 272.214 242.243C272.214 242.243 256.34 236.084 257.675 226.268C257.675 226.268 252.83 249.396 245.648 248.398C238.466 247.4 230.313 241.426 234.145 233.601Z" fill="#E8F5FF"/>
<path opacity="0.1" d="M246.963 255.4C252.562 255.4 257.101 251.266 257.101 246.166C257.101 241.066 252.562 236.931 246.963 236.931C241.364 236.931 236.825 241.066 236.825 246.166C236.825 251.266 241.364 255.4 246.963 255.4Z" fill="black"/>
<path d="M258.047 234.268C258.047 234.268 256.033 173.034 238.497 186.677C220.961 200.32 220.789 216.637 224.128 221.457C227.467 226.278 238.174 250.409 238.174 250.409C239.849 251.376 241.73 251.934 243.663 252.037C245.596 252.14 247.526 251.785 249.295 251.002C251.064 250.219 252.621 249.03 253.84 247.532C255.058 246.034 255.903 244.27 256.305 242.384L258.047 234.268Z" fill="#FFB0B1"/>
<path opacity="0.1" d="M367.44 79.1619C367.358 78.8929 367.201 78.6527 366.986 78.4697C366.12 77.6823 364.257 77.4064 361.447 77.6471L361.562 78.9713C365.309 78.6503 366.05 79.3927 366.145 79.5181V79.6435L366.261 79.809C366.728 80.4343 367.059 81.15 367.233 81.91C367.406 82.6701 367.418 83.4579 367.268 84.223C366.448 88.3109 361.406 91.5662 361.356 91.6013L361.235 91.6715L361.16 91.7869C358.984 95.0021 346.68 104.076 343.462 106.423L343.18 106.102C341.74 107.346 329.079 118.386 328.394 122.614C327.95 125.268 324.949 126.296 323.861 126.582C322.713 125.714 318.986 122.76 317.047 119.449C315.229 116.335 322.547 110.255 323.191 107.883L322.184 106.855C322.078 107.236 312.681 115.983 315.294 120.453C317.389 124.039 321.217 127.109 322.557 128.122C322.129 131.994 319.464 154.731 315.37 160.118C310.283 166.814 306.008 200.561 306.481 212.344C306.899 222.812 304.154 242.584 294.988 251.076C293.401 252.611 291.487 253.769 289.388 254.463C287.289 255.158 285.059 255.372 282.866 255.089H282.755H282.644C282.513 255.089 269.218 256.443 258.047 247.063C248.907 239.404 243.729 226.905 242.652 209.901H242.43L242.339 204.95C244.818 204.565 247.05 203.238 248.566 201.248C250.083 199.258 250.766 196.76 250.472 194.279C250.179 191.798 248.931 189.527 246.991 187.943C245.051 186.359 242.57 185.586 240.07 185.785C237.569 185.985 235.244 187.142 233.582 189.013C231.92 190.885 231.052 193.325 231.158 195.821C231.265 198.317 232.339 200.674 234.154 202.398C235.97 204.122 238.385 205.078 240.894 205.066H241.005L241.095 209.986L240.652 210.016C241.76 227.572 247.199 240.558 256.768 248.578C264.041 254.581 273.331 257.609 282.76 257.05C283.429 257.123 284.102 257.16 284.775 257.16C289.097 257.183 293.255 255.517 296.358 252.521C306.013 243.567 308.949 223.068 308.49 212.243C307.987 199.759 312.474 167.226 316.976 161.302C321.388 155.489 324.062 132.837 324.531 128.448C326.127 128.002 329.738 126.592 330.353 122.93C330.796 120.282 339.252 112.121 344.454 107.602L344.298 107.421C347.098 105.385 355.806 98.9646 360.122 94.8416C361.462 93.5625 362.791 92.2835 364.181 91.0646C365.853 89.5899 367.979 87.2475 368.538 84.4788C368.728 83.5648 368.729 82.6217 368.54 81.7074C368.352 80.793 367.977 79.9268 367.44 79.1619Z" fill="black"/>
<path d="M322.386 127.806C322.174 127.66 317.158 124.084 314.645 119.78C312.036 115.311 321.434 106.569 321.534 106.187L322.542 107.216C321.902 109.583 314.584 115.667 316.403 118.777C318.694 122.705 323.519 126.141 323.569 126.176L322.386 127.806Z" fill="#353146"/>
<path d="M342.808 107.396L342.022 106.318C342.183 106.203 358.002 94.8065 360.495 91.1199L360.575 91.0095L360.691 90.9343C360.742 90.8992 365.783 87.6489 366.604 83.5559C366.755 82.7918 366.744 82.0044 366.57 81.2449C366.397 80.4854 366.065 79.7707 365.597 79.147L365.481 78.9764V78.8561C365.38 78.7256 364.64 77.9883 360.893 78.3093L360.777 76.9801C363.592 76.7394 365.451 77.0152 366.317 77.8027C366.532 77.9875 366.691 78.2292 366.775 78.4999C367.32 79.2626 367.702 80.1282 367.897 81.0435C368.093 81.9588 368.099 82.9043 367.913 83.8218C367.354 86.5956 365.234 88.938 363.557 90.4076C362.172 91.6265 360.837 92.9156 359.503 94.1846C354.441 99.0149 343.362 107 342.808 107.396Z" fill="#E8F5FF"/>
<path d="M241.689 203.204L240.355 203.228L240.504 211.307L241.838 211.283L241.689 203.204Z" fill="#E8F5FF"/>
<path d="M240.244 204.428C245.626 204.428 249.989 200.083 249.989 194.723C249.989 189.362 245.626 185.017 240.244 185.017C234.862 185.017 230.499 189.362 230.499 194.723C230.499 200.083 234.862 204.428 240.244 204.428Z" fill="#587EEC"/>
<path d="M240.244 202.783C244.714 202.783 248.338 199.174 248.338 194.723C248.338 190.271 244.714 186.662 240.244 186.662C235.774 186.662 232.151 190.271 232.151 194.723C232.151 199.174 235.774 202.783 240.244 202.783Z" fill="#E8F5FF"/>
<path d="M284.14 256.513C283.467 256.514 282.795 256.479 282.126 256.408C272.697 256.961 263.409 253.934 256.134 247.936C246.565 239.911 241.136 226.94 240.018 209.369L242.032 209.244C243.11 226.248 248.287 238.752 257.433 246.406C268.603 255.761 281.894 254.432 282.025 254.432H282.136H282.247C284.441 254.713 286.671 254.499 288.77 253.804C290.87 253.11 292.785 251.952 294.374 250.419C303.535 241.927 306.28 222.155 305.862 211.686C305.358 199.894 309.634 166.147 314.725 159.456C319.182 153.593 321.947 127.164 321.978 126.898L322.053 126.146L322.798 126.015C322.844 126.015 327.195 125.193 327.739 121.952C328.444 117.729 341.085 106.689 342.52 105.44L343.835 106.945C338.612 111.459 330.156 119.625 329.733 122.278C329.119 125.95 325.508 127.354 323.916 127.796C323.413 132.19 320.759 154.836 316.362 160.65C311.86 166.574 307.372 199.107 307.876 211.591C308.309 222.415 305.403 242.92 295.749 251.869C292.64 254.872 288.471 256.54 284.14 256.513Z" fill="#353146"/>
<g opacity="0.1">
<path opacity="0.1" d="M366.095 51.6799C366.921 48.6403 367.918 45.5806 368.613 42.5009C367.782 45.5957 366.78 48.6403 366.095 51.6799Z" fill="black"/>
<path opacity="0.1" d="M357.67 75.5656C356.662 73.3636 357.201 70.8155 357.221 68.3979C357.241 65.9802 356.345 63.1513 354.008 62.4741C349.335 61.175 346.111 69.8575 341.518 68.2875C337.993 67.0887 338.925 61.7669 336.89 58.6922C335.283 56.2544 332.065 55.5723 329.567 54.0474C324.239 50.7921 324.4 45.5857 321.932 40.6601C319.339 35.4937 313.874 37.0185 309.12 40.0682C305.509 42.3855 302.402 45.4904 298.544 47.3412C295.205 48.9413 291.453 49.5231 287.751 49.6084C283.244 49.7137 278.338 48.9162 275.241 45.6559C272.854 43.1479 271.993 39.4713 272.486 36.0254C272.401 36.2611 272.325 36.4969 272.25 36.7326C271.041 40.6801 271.746 45.3198 274.571 48.3193C277.669 51.5796 282.574 52.3721 287.081 52.2718C290.788 52.1866 294.535 51.6047 297.879 50.0046C301.747 48.1488 304.854 45.049 308.455 42.7316C313.209 39.682 318.679 38.1571 321.267 43.3235C323.735 48.2491 323.579 53.4556 328.902 56.7109C331.421 58.2156 334.619 58.9179 336.23 61.3556C338.245 64.4403 337.353 69.7522 340.859 70.951C345.447 72.5159 348.67 63.8384 353.343 65.1376C355.68 65.7896 356.582 68.6487 356.557 71.0613C356.531 73.4739 356.008 76.027 357.005 78.229C360.878 78.0534 365.667 77.2258 366.79 73.5141C366.945 72.9814 367.016 72.4282 367.002 71.8739C365.365 74.6878 361.155 75.4101 357.67 75.5656Z" fill="black"/>
</g>
<path opacity="0.1" d="M448.69 199.157L454.537 205.316C454.537 205.316 459.216 239.259 461.552 242.434C463.889 245.609 469.409 258.239 464.227 267.724C464.227 267.724 462.555 272.885 463.557 275.047C464.559 277.209 456.043 288.028 456.043 288.028C456.043 288.028 444.847 298.01 442.505 299.509C440.163 301.009 427.804 312.987 423.629 313.153C419.454 313.318 418.09 318.48 418.09 318.48L394.53 319.312C394.53 319.312 381.516 318.635 378.686 320.466C378.686 320.466 380.197 300.663 365.657 287.682L384.201 281.026C384.201 281.026 391.221 278.016 393.392 274.871C394.757 272.943 396.694 271.489 398.932 270.713C398.932 270.713 404.109 267.052 404.275 265.055C404.441 263.059 410.606 260.611 410.606 260.611L407.116 230.942L408.954 181.687C408.954 181.687 414.801 140.416 427.165 142.748C439.529 145.081 448.69 199.157 448.69 199.157Z" fill="black"/>
<path d="M450.704 199.157L456.551 205.316C456.551 205.316 461.23 239.259 463.567 242.434C465.904 245.609 471.423 258.239 466.241 267.724C466.241 267.724 464.574 272.885 465.576 275.047C466.578 277.209 458.057 288.028 458.057 288.028C458.057 288.028 446.862 298.01 444.52 299.509C442.178 301.009 429.819 312.987 425.644 313.153C421.469 313.318 420.104 318.48 420.104 318.48L396.544 319.312C396.544 319.312 383.521 318.635 380.7 320.466C380.7 320.466 382.211 300.663 367.672 287.682L386.215 281.026C386.215 281.026 393.236 278.016 395.406 274.871C396.772 272.943 398.709 271.489 400.946 270.713C400.946 270.713 406.123 267.052 406.289 265.055C406.456 263.059 412.62 260.611 412.62 260.611L409.13 230.942L410.968 181.687C410.968 181.687 416.815 140.416 429.179 142.748C441.543 145.081 450.704 199.157 450.704 199.157Z" fill="#E8F5FF"/>
<path opacity="0.1" d="M428.968 248.914C428.968 248.914 446.177 244.4 450.689 249.918C455.202 255.435 428.968 248.914 428.968 248.914Z" fill="black"/>
<path opacity="0.1" d="M424.959 256.483C430.806 260.561 448.851 260.727 448.851 260.727L424.959 256.483Z" fill="black"/>
<path opacity="0.1" d="M433.813 276.868C434.316 277.033 446.217 289.683 451.213 285.856C456.209 282.029 433.813 276.868 433.813 276.868Z" fill="black"/>
<path opacity="0.1" d="M273.539 170.702C273.539 170.702 277.034 194.668 275.312 204.429C273.589 214.189 279.875 226.283 279.875 226.283L273.539 170.702Z" fill="black"/>
<path d="M196.162 180.448C192.133 183.593 189.192 191.036 187.061 199.217C183.345 213.487 182.131 230.035 182.131 230.035C182.131 230.035 150.05 222.711 152.387 219.386C153.857 217.294 151.883 201.534 150.236 190.108C149.254 183.357 148.378 178.115 148.378 178.115C148.378 178.115 207.191 171.79 196.162 180.448Z" fill="#FFB0B1"/>
<path opacity="0.1" d="M196.162 179.78C192.133 182.93 189.192 190.369 187.061 198.55C180.67 200.483 173.872 200.657 167.389 199.055C160.905 197.452 154.979 194.132 150.236 189.446C149.254 182.69 148.378 177.448 148.378 177.448C148.378 177.448 207.191 171.128 196.162 179.78Z" fill="black"/>
<path d="M213.406 161.854C213.409 170.578 210.314 179.022 204.667 185.692C199.02 192.361 191.186 196.826 182.552 198.296C173.917 199.766 165.039 198.147 157.488 193.724C149.938 189.302 144.201 182.362 141.294 174.132C138.388 165.902 138.498 156.913 141.605 148.756C144.713 140.6 150.618 133.801 158.275 129.563C165.932 125.326 174.847 123.922 183.443 125.602C192.038 127.282 199.76 131.936 205.242 138.741C210.525 145.295 213.404 153.449 213.406 161.854Z" fill="#FFB0B1"/>
<path opacity="0.1" d="M242.656 392.865H232.08L231.189 374.261L230.257 355.005C230.257 355.005 232.659 354.649 236.487 354.117L238.033 353.912H238.159C238.995 357.819 239.821 361.832 240.617 365.839C241.941 372.954 242.631 380.172 242.677 387.408C242.677 387.909 242.677 388.411 242.677 388.882C242.707 390.222 242.677 391.561 242.656 392.865Z" fill="black"/>
<path d="M240.627 392.865H107.992C108.566 391.566 108.949 390.778 108.949 390.778C108.949 390.778 119.56 344.542 124.954 324.98C124.956 324.963 124.956 324.947 124.954 324.93C125.628 322.273 126.442 319.652 127.392 317.08C127.453 316.905 127.533 316.737 127.629 316.579C130.298 312.255 133.642 307.595 128.963 300.939C124.284 294.283 125.941 264.995 125.941 264.995C125.941 264.995 131.622 240.031 137.636 226.719C138.548 224.657 139.843 222.785 141.453 221.202C141.976 220.692 142.535 220.219 143.125 219.787C143.574 219.451 144.041 219.142 144.525 218.859L144.621 218.799C147.147 217.373 149.952 216.505 152.845 216.256C154.9 216.042 156.975 216.099 159.014 216.427C168.765 217.851 176.571 220.234 182.776 222.947C199.592 230.305 204.683 240.167 204.784 240.372L204.824 240.458C205.499 242.028 215.37 264.98 218.926 275.689C219.847 278.478 220.351 280.439 220.15 280.976C219.142 283.634 227.835 316.915 227.835 316.915C227.835 316.915 231.864 332.965 235.893 351.78C236.069 352.562 236.235 353.345 236.396 354.137C237.117 357.553 237.832 361.034 238.522 364.51C239.859 371.674 240.548 378.943 240.582 386.229C240.656 388.5 240.671 390.712 240.627 392.865Z" fill="#EB5569"/>
<path opacity="0.1" d="M152.054 204.81C152.054 204.81 142.904 201.299 143.014 206.625C143.125 211.952 145.245 214.5 144.576 215.278C143.906 216.055 144.908 220.715 144.908 220.715C144.908 220.715 157.272 220.715 162.953 223.263C168.634 225.811 189.574 230.917 192.249 232.472C194.923 234.027 204.839 240.999 204.839 240.999L205.731 227.797C205.731 227.797 195.482 219.366 178.666 215.042C161.85 210.718 152.054 204.81 152.054 204.81Z" fill="black"/>
<path d="M152.054 204.143C152.054 204.143 142.904 200.631 143.014 205.958C143.125 211.285 145.245 213.833 144.576 214.611C143.906 215.388 144.908 220.048 144.908 220.048C144.908 220.048 157.272 220.048 162.953 222.601C168.634 225.154 189.574 230.255 192.249 231.805C194.923 233.355 204.839 240.332 204.839 240.332L205.741 227.17C205.741 227.17 195.492 218.739 178.676 214.415C161.86 210.091 152.054 204.143 152.054 204.143Z" fill="#EB5569"/>
<path opacity="0.1" d="M179.678 235.913C179.678 235.913 197.164 254.768 196.273 259.989C195.381 265.211 179.678 235.913 179.678 235.913Z" fill="black"/>
<path opacity="0.1" d="M151.274 304.024C151.274 304.024 138.457 315.786 134.679 316.453C130.902 317.12 137.575 319.337 141.916 317.567C146.258 315.796 155.514 311.136 155.514 311.136L151.274 304.024Z" fill="black"/>
<path d="M245.834 392.865H215.944C211.764 389.254 207.811 385.908 205.292 383.897C201.263 380.677 198.358 375.936 196.504 372.124C196.086 371.257 195.724 370.444 195.416 369.707C194.866 368.437 194.382 367.139 193.966 365.819L216.1 352.728C217.324 353.764 218.473 354.884 219.54 356.079L219.807 356.385C221.036 357.829 222.119 359.469 222.214 360.814C222.325 362.379 226.697 368.433 231.164 374.246C235.696 380.16 240.34 385.813 240.647 386.194C240.647 386.194 241.412 387.232 242.661 388.827C243.543 389.981 244.631 391.365 245.834 392.865Z" fill="#FFB0B1"/>
<path opacity="0.1" d="M205.242 138.741C204.18 141.128 203.228 143.606 203.087 146.264C202.689 153.939 203.334 171.098 194.802 174.95C190.577 176.846 186.054 172.683 181.421 172.583C178.087 172.513 175.03 174.619 172.995 177.253C170.961 179.886 169.696 183.011 168.221 185.99C166.878 188.694 165.33 191.293 163.593 193.765C163.073 194.521 162.501 195.24 161.88 195.917C156.678 193.73 152.046 190.39 148.336 186.151C144.626 181.912 141.937 176.885 140.473 171.453C139.01 166.022 138.81 160.33 139.89 154.81C140.97 149.291 143.301 144.089 146.704 139.602C150.108 135.116 154.496 131.462 159.532 128.92C164.568 126.378 170.121 125.014 175.767 124.933C181.413 124.852 187.002 126.055 192.11 128.451C197.218 130.848 201.71 134.374 205.242 138.761V138.741Z" fill="black"/>
<path d="M202.417 144.91C202.014 152.584 202.664 169.744 194.127 173.591C189.902 175.487 185.379 171.329 180.746 171.228C177.412 171.153 174.36 173.265 172.32 175.893C170.281 178.521 169.027 181.651 167.546 184.636C166.202 187.34 164.655 189.939 162.918 192.41C161.88 193.875 160.732 195.345 159.135 196.167C156.355 197.612 152.986 196.799 150.005 195.871C146.137 194.658 142.326 193.29 138.572 191.768C138.658 191.204 138.702 190.634 138.703 190.063C138.592 190.274 138.472 190.469 138.351 190.68L138.114 191.091C137.686 191.844 137.268 192.596 136.885 193.368C136.739 193.664 136.598 193.97 136.472 194.276C135.966 195.415 135.648 196.628 135.53 197.868C135.274 201.213 136.931 204.388 138.401 207.398C144.057 219.04 147.552 232.653 143.296 244.866C141.453 250.178 138.26 254.898 135.928 260.029C131.852 269.118 130.652 279.227 132.489 289.011C133.652 295.09 135.984 301.11 135.41 307.274C134.402 317.883 125.216 325.778 116.015 331.205C111.044 334.124 104.96 336.722 99.6824 334.415C103.047 330.503 103.913 325.09 104.638 319.984C106.622 306.057 108.612 292.123 110.606 278.182C111.402 272.634 112.196 267.087 112.988 261.539C114.469 251.116 115.97 240.578 115.043 230.09C114.368 222.36 112.464 214.154 115.829 207.157C117.606 203.45 120.774 200.381 121.761 196.388C122.572 193.143 121.817 189.692 122.351 186.386C122.643 184.882 123.137 183.425 123.821 182.053C124.692 180.191 125.828 178.464 127.195 176.926C125.846 176.535 124.587 175.998 123.821 174.875C125.987 173.47 126.314 170.305 125.332 167.928C124.35 165.55 122.386 163.74 120.618 161.864C118.85 159.988 117.148 157.801 116.927 155.243C116.498 150.372 121.384 146.6 122.245 141.795C123.116 136.905 119.671 132.15 119.948 127.199C120.271 121.215 125.79 116.866 131.24 114.343C139.463 110.552 148.546 108.995 157.569 109.829C164.912 110.521 172.018 112.783 179.341 113.661C183.758 114.163 188.235 114.213 192.621 114.985C197.008 115.758 201.405 117.388 204.492 120.593C212.63 129.045 202.88 136.002 202.417 144.91Z" fill="#575A89"/>
<path opacity="0.1" d="M195.608 372.129C193.039 371.021 188.366 371.683 180.343 369.25C172.32 366.818 170.774 355.823 170.774 355.823V355.788C170.678 355.537 169.933 353.902 164.887 348.174C159.311 341.849 147.26 309.902 147.26 309.902C147.26 309.902 136.573 298.471 136.91 294.258C137.248 290.045 135.012 278.834 135.233 266.294C135.455 253.755 159.291 245.438 159.291 245.438C205.187 237.338 194.379 290.034 193.155 294.027C191.931 298.02 198.282 308.804 198.282 308.804C197.386 313.499 201.958 320.767 201.958 320.767C201.958 320.767 203.066 327.197 203.293 329.64C203.306 329.753 203.331 329.864 203.369 329.971C204.104 332.273 210.097 334.36 212.535 335.629C215.098 336.963 223.342 348.61 223.342 348.61C225.12 357.162 198.166 373.253 195.608 372.129Z" fill="black"/>
<path d="M196.943 370.123C194.379 369.009 189.7 369.677 181.683 367.239C173.665 364.801 172.114 353.816 172.114 353.816V353.781C172.023 353.525 171.273 351.895 166.226 346.167C160.651 339.842 148.6 307.891 148.6 307.891C148.6 307.891 137.913 296.465 138.245 292.251C138.577 288.038 136.351 276.828 136.573 264.298C136.795 251.768 160.616 243.457 160.616 243.457C206.511 235.356 195.704 288.053 194.48 292.046C193.256 296.038 199.607 306.823 199.607 306.823C198.71 311.517 203.283 318.785 203.283 318.785C203.283 318.785 204.391 325.216 204.623 327.659C204.631 327.772 204.655 327.883 204.693 327.99C205.429 330.292 211.422 332.378 213.864 333.647C216.423 334.977 224.672 346.629 224.672 346.629C226.46 355.166 199.506 371.257 196.943 370.123Z" fill="#EB5569"/>
<path opacity="0.1" d="M161.523 270.969C161.523 270.969 181.572 292.036 186.805 292.036C192.037 292.036 161.523 270.969 161.523 270.969Z" fill="black"/>
<path d="M196.942 370.123C194.379 369.01 189.7 369.677 181.683 367.239C173.665 364.801 172.114 353.816 172.114 353.816V353.781C177.427 350.27 190.884 340.354 196.187 336.727C199.919 334.184 202.966 330.447 204.749 327.97C205.484 330.272 211.477 332.359 213.92 333.628C216.478 334.957 224.727 346.609 224.727 346.609C226.46 355.166 199.506 371.257 196.942 370.123Z" fill="#FF748E"/>
<g opacity="0.1">
<path opacity="0.1" d="M123.851 174.93C123.876 174.97 123.912 175.005 123.942 175.045C124.093 174.855 124.249 174.664 124.41 174.484C124.239 174.65 124.052 174.799 123.851 174.93Z" fill="black"/>
<path opacity="0.1" d="M135.535 197.923C135.747 195.139 137.243 192.686 138.643 190.239C137.726 189.887 136.81 189.531 135.903 189.16C135.989 188.597 136.033 188.029 136.034 187.46C134.619 189.968 133.078 192.436 132.861 195.259C132.604 198.61 134.261 201.78 135.732 204.79C141.393 216.426 144.883 230.04 140.627 242.258C138.779 247.565 135.591 252.29 133.259 257.421C129.184 266.508 127.986 276.616 129.824 286.398C130.978 292.482 133.314 298.496 132.74 304.661C131.733 315.269 122.552 323.164 113.346 328.587C109.584 330.804 105.187 332.835 100.982 332.69C100.592 333.314 100.158 333.909 99.6824 334.47C104.965 336.793 111.044 334.179 116.015 331.25C125.226 325.833 134.427 317.958 135.435 307.329C136.009 301.165 133.672 295.151 132.514 289.066C130.675 279.285 131.87 269.178 135.938 260.09C138.255 254.963 141.478 250.234 143.306 244.927C147.562 232.708 144.067 219.095 138.411 207.458C136.946 204.429 135.279 201.274 135.535 197.923Z" fill="black"/>
<path opacity="0.1" d="M204.482 120.653C203.986 120.147 203.454 119.678 202.89 119.249C208.994 127.134 200.181 133.835 199.743 142.322C199.35 149.996 199.994 167.16 191.458 171.003C187.238 172.904 182.71 168.74 178.082 168.64C174.743 168.57 171.691 170.682 169.651 173.31C167.611 175.938 166.357 179.068 164.882 182.048C163.535 184.751 161.987 187.35 160.248 189.822C159.241 191.292 158.063 192.756 156.461 193.584C153.691 195.024 150.322 194.216 147.335 193.283C144.431 192.374 141.554 191.37 138.703 190.274C138.697 190.796 138.654 191.317 138.572 191.834C142.329 193.358 146.142 194.726 150.01 195.937C152.991 196.869 156.36 197.677 159.135 196.237C160.732 195.41 161.89 193.94 162.923 192.471C164.662 190.002 166.209 187.405 167.551 184.701C169.032 181.722 170.281 178.587 172.325 175.958C174.37 173.33 177.417 171.223 180.751 171.294C185.384 171.394 189.912 175.557 194.132 173.656C202.669 169.814 202.019 152.65 202.417 144.975C202.88 136.052 212.63 129.1 204.482 120.653Z" fill="black"/>
</g>
<path opacity="0.1" d="M138.119 191.096C137.691 191.849 137.273 192.601 136.89 193.373C136.744 193.669 136.603 193.975 136.477 194.281C133.838 191.633 127.412 185.338 123.826 183.387C124.698 181.526 125.834 179.799 127.2 178.261C127.2 178.261 135.747 182.76 138.119 191.096Z" fill="black"/>
<path d="M138.356 190.685C136.377 181.762 127.2 176.932 127.2 176.932C125.833 178.469 124.697 180.196 123.826 182.058C127.608 184.119 134.579 191.031 136.89 193.374L138.356 190.685Z" fill="#EB5569"/>
<defs>
<linearGradient id="paint0_linear_4_6" x1="368.094" y1="48.1388" x2="368.094" y2="38.9196" gradientUnits="userSpaceOnUse">
<stop stop-color="#808080" stop-opacity="0.25"/>
<stop offset="0.54" stop-color="#808080" stop-opacity="0.12"/>
<stop offset="1" stop-color="#808080" stop-opacity="0.1"/>
</linearGradient>
<linearGradient id="paint1_linear_4_6" x1="231050" y1="330298" x2="231050" y2="23029.3" gradientUnits="userSpaceOnUse">
<stop stop-color="#808080" stop-opacity="0.25"/>
<stop offset="0.54" stop-color="#808080" stop-opacity="0.12"/>
<stop offset="1" stop-color="#808080" stop-opacity="0.1"/>
</linearGradient>
</defs>
</svg>
