<svg width="65" height="73" viewBox="0 0 65 73" fill="none" xmlns="http://www.w3.org/2000/svg">
<path d="M64.4813 25.4272H43.0528V72.01H35.9099V50.5102H28.7671V72.01H21.6242V25.4272H0.195633V18.2607H64.4813V25.4272ZM32.3385 0.344238C34.2329 0.344238 36.0497 1.09929 37.3893 2.44328C38.7288 3.78727 39.4813 5.61012 39.4813 7.51081C39.4813 9.4115 38.7288 11.2343 37.3893 12.5783C36.0497 13.9223 34.2329 14.6774 32.3385 14.6774C30.4441 14.6774 28.6273 13.9223 27.2877 12.5783C25.9482 11.2343 25.1956 9.4115 25.1956 7.51081C25.1956 3.53336 28.3742 0.344238 32.3385 0.344238Z" fill="#EC5863"/>
</svg>
