<svg width="88" height="73" viewBox="0 0 88 73" fill="none" xmlns="http://www.w3.org/2000/svg">
<path d="M24.5815 0.885498C18.2049 0.885498 12.0895 3.37591 7.58063 7.80887C3.07172 12.2418 0.538635 18.2542 0.538635 24.5234C0.538635 26.6723 0.932064 28.8212 1.50035 30.9701H19.3358L24.8875 16.4865C26.1989 13.0483 31.3572 12.7044 33.0183 16.4865L42.0672 39.5656L44.6464 33.4628C45.2146 32.0445 46.7446 30.9701 48.6243 30.9701H87.0055C87.5738 28.8212 87.9672 26.6723 87.9672 24.5234C87.9672 18.2542 85.4341 12.2418 80.9252 7.80887C76.4163 3.37591 70.3009 0.885498 63.9243 0.885498C55.7935 0.885498 48.6243 4.88245 44.2529 10.9423C39.8815 4.88245 32.7123 0.885498 24.5815 0.885498ZM4.91006 37.4167C3.75069 37.4167 2.6388 37.8696 1.819 38.6755C0.999195 39.4815 0.538635 40.5747 0.538635 41.7145C0.538635 42.8544 0.999195 43.9476 1.819 44.7535C2.6388 45.5595 3.75069 46.0123 4.91006 46.0123H15.5763L39.8815 69.6502C44.2529 73.5182 44.2529 73.5182 48.6243 69.6502L72.9295 46.0123H83.5958C84.7551 46.0123 85.867 45.5595 86.6868 44.7535C87.5066 43.9476 87.9672 42.8544 87.9672 41.7145C87.9672 40.5747 87.5066 39.4815 86.6868 38.6755C85.867 37.8696 84.7551 37.4167 83.5958 37.4167H50.3729L46.3075 47.3017C44.5589 51.6424 39.5318 51.0408 37.9143 47.4306L28.9529 24.5234L24.7563 34.5372C24.1006 36.1704 22.6143 37.4167 20.6472 37.4167H4.91006Z" fill="#EC5863"/>
</svg>
