<svg width="68" height="73" viewBox="0 0 68 73" fill="none" xmlns="http://www.w3.org/2000/svg">
<path d="M33.7249 0.571533C27.8873 0.571533 24.3931 1.45357 22.172 2.55337C21.0601 3.10464 20.2706 3.68348 19.7397 4.2761C19.2059 4.86872 18.8696 5.73973 18.8696 5.73973C18.7824 5.9611 18.7245 6.19272 18.6972 6.42883L17.2184 25.2934C17.1989 25.4092 17.2378 25.5967 17.2184 25.7234L17.046 27.6198C17.0298 27.7913 17.0298 27.9638 17.046 28.1353C17.046 37.2313 24.5515 44.6735 33.7249 44.6735C42.8983 44.6735 50.4038 37.2313 50.4038 28.1353V27.7053C50.4043 27.6768 50.4043 27.6483 50.4038 27.6198L48.7526 6.42883C48.7254 6.19272 48.6674 5.9611 48.5803 5.73973C48.5803 5.73973 48.2439 4.86872 47.7102 4.2761C47.1792 3.68072 46.3898 3.10188 45.2778 2.55337C43.0568 1.45082 39.5625 0.571533 33.7249 0.571533ZM33.7249 44.6735C15.3781 44.6735 0.367126 53.2348 0.367126 60.9527V72.2373H67.0827V60.9527C67.0827 53.6207 53.5117 45.5445 36.4186 44.759C35.5219 44.7003 34.6235 44.6718 33.7249 44.6735ZM33.7249 6.08428C39.0066 6.08428 41.6446 6.91119 42.7593 7.46247C43.1318 7.64714 43.1763 7.71881 43.2819 7.80701L44.4105 21.9334C41.8531 22.0878 38.3672 22.6225 33.7249 22.6225C29.0826 22.6225 25.5995 22.0878 23.0393 21.9334L24.1679 7.80701C24.2708 7.71881 24.318 7.64714 24.6905 7.46247C25.8052 6.91119 28.4433 6.08428 33.7249 6.08428ZM31.4649 8.84065V12.1152H28.1653V16.5943H31.4677V19.8661H35.9821V16.5916H39.2846V12.1152H35.9821V8.84065H31.4677H31.4649ZM25.3855 50.8754L32.5101 66.7245H5.92676V60.9527C5.92676 58.8992 13.0153 52.8848 25.3855 50.8754ZM42.0644 50.8754C54.4346 52.8875 61.5231 58.8992 61.5231 60.9527V66.7245H34.9397L42.0644 50.8754Z" fill="#EC5863"/>
</svg>
