<svg width="140" height="40" viewBox="0 0 140 40" fill="none" xmlns="http://www.w3.org/2000/svg">
<path d="M51.462 26.1415C50.322 26.1415 49.338 25.9555 48.51 25.5835C47.694 25.1995 47.058 24.6475 46.602 23.9275C46.158 23.1955 45.912 22.3075 45.864 21.2635C45.852 20.7475 45.846 20.2015 45.846 19.6255C45.846 19.0375 45.852 18.4795 45.864 17.9515C45.912 16.9315 46.164 16.0675 46.62 15.3595C47.076 14.6515 47.718 14.1115 48.546 13.7395C49.374 13.3675 50.346 13.1815 51.462 13.1815C52.362 13.1815 53.16 13.2955 53.856 13.5235C54.552 13.7395 55.134 14.0335 55.602 14.4055C56.082 14.7775 56.442 15.1855 56.682 15.6295C56.934 16.0735 57.066 16.5115 57.078 16.9435C57.09 17.0515 57.054 17.1415 56.97 17.2135C56.898 17.2855 56.808 17.3215 56.7 17.3215H54.072C53.94 17.3215 53.838 17.3035 53.766 17.2675C53.706 17.2195 53.652 17.1535 53.604 17.0695C53.52 16.8895 53.394 16.7035 53.226 16.5115C53.07 16.3075 52.848 16.1335 52.56 15.9895C52.284 15.8455 51.918 15.7735 51.462 15.7735C50.778 15.7735 50.238 15.9535 49.842 16.3135C49.458 16.6735 49.248 17.2495 49.212 18.0415C49.176 19.0735 49.176 20.1175 49.212 21.1735C49.248 22.0135 49.47 22.6195 49.878 22.9915C50.286 23.3635 50.826 23.5495 51.498 23.5495C51.954 23.5495 52.356 23.4715 52.704 23.3155C53.064 23.1595 53.346 22.9195 53.55 22.5955C53.754 22.2595 53.856 21.8335 53.856 21.3175V20.9755H52.164C52.032 20.9755 51.918 20.9335 51.822 20.8495C51.738 20.7535 51.696 20.6395 51.696 20.5075V19.1755C51.696 19.0435 51.738 18.9355 51.822 18.8515C51.918 18.7555 52.032 18.7075 52.164 18.7075H56.7C56.832 18.7075 56.94 18.7555 57.024 18.8515C57.108 18.9355 57.15 19.0435 57.15 19.1755V21.2275C57.15 22.2595 56.916 23.1415 56.448 23.8735C55.98 24.6055 55.314 25.1695 54.45 25.5655C53.598 25.9495 52.602 26.1415 51.462 26.1415ZM63.4451 26.1415C62.4371 26.1415 61.5851 25.9795 60.8891 25.6555C60.2051 25.3315 59.6771 24.8695 59.3051 24.2695C58.9451 23.6575 58.7411 22.9315 58.6931 22.0915C58.6811 21.8515 58.6751 21.5815 58.6751 21.2815C58.6751 20.9695 58.6811 20.6995 58.6931 20.4715C58.7411 19.6195 58.9571 18.8935 59.3411 18.2935C59.7251 17.6935 60.2591 17.2315 60.9431 16.9075C61.6391 16.5835 62.4731 16.4215 63.4451 16.4215C64.4291 16.4215 65.2631 16.5835 65.9471 16.9075C66.6431 17.2315 67.1831 17.6935 67.5671 18.2935C67.9511 18.8935 68.1671 19.6195 68.2151 20.4715C68.2271 20.6995 68.2331 20.9695 68.2331 21.2815C68.2331 21.5815 68.2271 21.8515 68.2151 22.0915C68.1671 22.9315 67.9571 23.6575 67.5851 24.2695C67.2251 24.8695 66.6971 25.3315 66.0011 25.6555C65.3171 25.9795 64.4651 26.1415 63.4451 26.1415ZM63.4451 23.9455C63.9851 23.9455 64.3751 23.7835 64.6151 23.4595C64.8671 23.1355 65.0111 22.6495 65.0471 22.0015C65.0591 21.8215 65.0651 21.5815 65.0651 21.2815C65.0651 20.9815 65.0591 20.7415 65.0471 20.5615C65.0111 19.9255 64.8671 19.4455 64.6151 19.1215C64.3751 18.7855 63.9851 18.6175 63.4451 18.6175C62.9171 18.6175 62.5271 18.7855 62.2751 19.1215C62.0231 19.4455 61.8851 19.9255 61.8611 20.5615C61.8491 20.7415 61.8431 20.9815 61.8431 21.2815C61.8431 21.5815 61.8491 21.8215 61.8611 22.0015C61.8851 22.6495 62.0231 23.1355 62.2751 23.4595C62.5271 23.7835 62.9171 23.9455 63.4451 23.9455Z" fill="black"/>
<path d="M75.3674 26.1415C74.2274 26.1415 73.2494 25.9555 72.4334 25.5835C71.6294 25.2115 70.9994 24.6655 70.5434 23.9455C70.0994 23.2255 69.8534 22.3315 69.8054 21.2635C69.7934 20.7715 69.7874 20.2435 69.7874 19.6795C69.7874 19.1155 69.7934 18.5755 69.8054 18.0595C69.8534 17.0155 70.1054 16.1335 70.5614 15.4135C71.0174 14.6815 71.6534 14.1295 72.4694 13.7575C73.2854 13.3735 74.2514 13.1815 75.3674 13.1815C76.1594 13.1815 76.8914 13.2835 77.5634 13.4875C78.2354 13.6795 78.8234 13.9675 79.3274 14.3515C79.8314 14.7235 80.2214 15.1795 80.4974 15.7195C80.7854 16.2475 80.9354 16.8475 80.9474 17.5195C80.9594 17.6275 80.9234 17.7175 80.8394 17.7895C80.7674 17.8615 80.6774 17.8975 80.5694 17.8975H78.1394C77.9834 17.8975 77.8634 17.8675 77.7794 17.8075C77.6954 17.7355 77.6234 17.6095 77.5634 17.4295C77.3954 16.7935 77.1194 16.3615 76.7354 16.1335C76.3634 15.8935 75.9014 15.7735 75.3494 15.7735C74.6894 15.7735 74.1674 15.9595 73.7834 16.3315C73.3994 16.6915 73.1894 17.2975 73.1534 18.1495C73.1174 19.1335 73.1174 20.1415 73.1534 21.1735C73.1894 22.0255 73.3994 22.6375 73.7834 23.0095C74.1674 23.3695 74.6894 23.5495 75.3494 23.5495C75.9014 23.5495 76.3694 23.4295 76.7534 23.1895C77.1374 22.9495 77.4074 22.5175 77.5634 21.8935C77.6114 21.7135 77.6774 21.5935 77.7614 21.5335C77.8574 21.4615 77.9834 21.4255 78.1394 21.4255H80.5694C80.6774 21.4255 80.7674 21.4615 80.8394 21.5335C80.9234 21.6055 80.9594 21.6955 80.9474 21.8035C80.9354 22.4755 80.7854 23.0815 80.4974 23.6215C80.2214 24.1495 79.8314 24.6055 79.3274 24.9895C78.8234 25.3615 78.2354 25.6495 77.5634 25.8535C76.8914 26.0455 76.1594 26.1415 75.3674 26.1415ZM87.0701 26.1415C86.0621 26.1415 85.2101 25.9795 84.5141 25.6555C83.8301 25.3315 83.3021 24.8695 82.9301 24.2695C82.5701 23.6575 82.3661 22.9315 82.3181 22.0915C82.3061 21.8515 82.3001 21.5815 82.3001 21.2815C82.3001 20.9695 82.3061 20.6995 82.3181 20.4715C82.3661 19.6195 82.5821 18.8935 82.9661 18.2935C83.3501 17.6935 83.8841 17.2315 84.5681 16.9075C85.2641 16.5835 86.0981 16.4215 87.0701 16.4215C88.0541 16.4215 88.8881 16.5835 89.5721 16.9075C90.2681 17.2315 90.8081 17.6935 91.1921 18.2935C91.5761 18.8935 91.7921 19.6195 91.8401 20.4715C91.8521 20.6995 91.8581 20.9695 91.8581 21.2815C91.8581 21.5815 91.8521 21.8515 91.8401 22.0915C91.7921 22.9315 91.5821 23.6575 91.2101 24.2695C90.8501 24.8695 90.3221 25.3315 89.6261 25.6555C88.9421 25.9795 88.0901 26.1415 87.0701 26.1415ZM87.0701 23.9455C87.6101 23.9455 88.0001 23.7835 88.2401 23.4595C88.4921 23.1355 88.6361 22.6495 88.6721 22.0015C88.6841 21.8215 88.6901 21.5815 88.6901 21.2815C88.6901 20.9815 88.6841 20.7415 88.6721 20.5615C88.6361 19.9255 88.4921 19.4455 88.2401 19.1215C88.0001 18.7855 87.6101 18.6175 87.0701 18.6175C86.5421 18.6175 86.1521 18.7855 85.9001 19.1215C85.6481 19.4455 85.5101 19.9255 85.4861 20.5615C85.4741 20.7415 85.4681 20.9815 85.4681 21.2815C85.4681 21.5815 85.4741 21.8215 85.4861 22.0015C85.5101 22.6495 85.6481 23.1355 85.9001 23.4595C86.1521 23.7835 86.5421 23.9455 87.0701 23.9455ZM94.0784 25.9615C93.9464 25.9615 93.8384 25.9195 93.7544 25.8355C93.6704 25.7515 93.6284 25.6435 93.6284 25.5115V17.0515C93.6284 16.9315 93.6704 16.8295 93.7544 16.7455C93.8384 16.6495 93.9464 16.6015 94.0784 16.6015H96.1484C96.2804 16.6015 96.3884 16.6495 96.4724 16.7455C96.5564 16.8295 96.5984 16.9315 96.5984 17.0515V17.7715C96.9224 17.3995 97.3064 17.1115 97.7504 16.9075C98.2064 16.7035 98.7164 16.6015 99.2804 16.6015H100.072C100.192 16.6015 100.294 16.6435 100.378 16.7275C100.474 16.8115 100.522 16.9195 100.522 17.0515V18.9055C100.522 19.0255 100.474 19.1335 100.378 19.2295C100.294 19.3135 100.192 19.3555 100.072 19.3555H98.3264C97.8344 19.3555 97.4504 19.4935 97.1744 19.7695C96.9104 20.0335 96.7784 20.4115 96.7784 20.9035V25.5115C96.7784 25.6435 96.7304 25.7515 96.6344 25.8355C96.5504 25.9195 96.4424 25.9615 96.3104 25.9615H94.0784ZM106.16 26.1415C105.152 26.1415 104.3 25.9795 103.604 25.6555C102.92 25.3315 102.392 24.8695 102.02 24.2695C101.66 23.6575 101.456 22.9315 101.408 22.0915C101.396 21.8515 101.39 21.5815 101.39 21.2815C101.39 20.9695 101.396 20.6995 101.408 20.4715C101.456 19.6195 101.672 18.8935 102.056 18.2935C102.44 17.6935 102.974 17.2315 103.658 16.9075C104.354 16.5835 105.188 16.4215 106.16 16.4215C107.144 16.4215 107.978 16.5835 108.662 16.9075C109.358 17.2315 109.898 17.6935 110.282 18.2935C110.666 18.8935 110.882 19.6195 110.93 20.4715C110.942 20.6995 110.948 20.9695 110.948 21.2815C110.948 21.5815 110.942 21.8515 110.93 22.0915C110.882 22.9315 110.672 23.6575 110.3 24.2695C109.94 24.8695 109.412 25.3315 108.716 25.6555C108.032 25.9795 107.18 26.1415 106.16 26.1415ZM106.16 23.9455C106.7 23.9455 107.09 23.7835 107.33 23.4595C107.582 23.1355 107.726 22.6495 107.762 22.0015C107.774 21.8215 107.78 21.5815 107.78 21.2815C107.78 20.9815 107.774 20.7415 107.762 20.5615C107.726 19.9255 107.582 19.4455 107.33 19.1215C107.09 18.7855 106.7 18.6175 106.16 18.6175C105.632 18.6175 105.242 18.7855 104.99 19.1215C104.738 19.4455 104.6 19.9255 104.576 20.5615C104.564 20.7415 104.558 20.9815 104.558 21.2815C104.558 21.5815 104.564 21.8215 104.576 22.0015C104.6 22.6495 104.738 23.1355 104.99 23.4595C105.242 23.7835 105.632 23.9455 106.16 23.9455ZM113.168 25.9615C113.036 25.9615 112.928 25.9195 112.844 25.8355C112.76 25.7515 112.718 25.6435 112.718 25.5115V17.0515C112.718 16.9195 112.76 16.8115 112.844 16.7275C112.928 16.6435 113.036 16.6015 113.168 16.6015H115.238C115.37 16.6015 115.478 16.6435 115.562 16.7275C115.646 16.8115 115.688 16.9195 115.688 17.0515V17.7355C116 17.3635 116.408 17.0515 116.912 16.7995C117.416 16.5475 118.01 16.4215 118.694 16.4215C119.39 16.4215 120.002 16.5775 120.53 16.8895C121.07 17.2015 121.49 17.6635 121.79 18.2755C122.102 18.8755 122.258 19.6135 122.258 20.4895V25.5115C122.258 25.6435 122.21 25.7515 122.114 25.8355C122.03 25.9195 121.928 25.9615 121.808 25.9615H119.54C119.42 25.9615 119.312 25.9195 119.216 25.8355C119.132 25.7515 119.09 25.6435 119.09 25.5115V20.5975C119.09 20.0335 118.952 19.6015 118.676 19.3015C118.412 18.9895 118.016 18.8335 117.488 18.8335C116.996 18.8335 116.6 18.9895 116.3 19.3015C116.012 19.6015 115.868 20.0335 115.868 20.5975V25.5115C115.868 25.6435 115.82 25.7515 115.724 25.8355C115.64 25.9195 115.538 25.9615 115.418 25.9615H113.168ZM127.075 26.1415C126.427 26.1415 125.845 26.0215 125.329 25.7815C124.825 25.5295 124.423 25.1935 124.123 24.7735C123.823 24.3535 123.673 23.8795 123.673 23.3515C123.673 22.4995 124.021 21.8275 124.717 21.3355C125.413 20.8315 126.337 20.4895 127.489 20.3095L129.739 19.9675V19.7155C129.739 19.2835 129.649 18.9535 129.469 18.7255C129.289 18.4975 128.959 18.3835 128.479 18.3835C128.143 18.3835 127.867 18.4495 127.651 18.5815C127.447 18.7135 127.285 18.8935 127.165 19.1215C127.057 19.2775 126.907 19.3555 126.715 19.3555H124.699C124.567 19.3555 124.465 19.3195 124.393 19.2475C124.321 19.1635 124.291 19.0675 124.303 18.9595C124.303 18.7435 124.381 18.4975 124.537 18.2215C124.705 17.9335 124.957 17.6515 125.293 17.3755C125.629 17.0995 126.061 16.8715 126.589 16.6915C127.117 16.5115 127.753 16.4215 128.497 16.4215C129.277 16.4215 129.943 16.5115 130.495 16.6915C131.047 16.8715 131.491 17.1235 131.827 17.4475C132.175 17.7715 132.433 18.1555 132.601 18.5995C132.769 19.0315 132.853 19.5115 132.853 20.0395V25.5115C132.853 25.6435 132.805 25.7515 132.709 25.8355C132.625 25.9195 132.523 25.9615 132.403 25.9615H130.315C130.183 25.9615 130.075 25.9195 129.991 25.8355C129.907 25.7515 129.865 25.6435 129.865 25.5115V24.8815C129.709 25.1095 129.499 25.3195 129.235 25.5115C128.971 25.7035 128.659 25.8535 128.299 25.9615C127.951 26.0815 127.543 26.1415 127.075 26.1415ZM127.921 24.0895C128.269 24.0895 128.581 24.0175 128.857 23.8735C129.145 23.7175 129.367 23.4835 129.523 23.1715C129.691 22.8475 129.775 22.4455 129.775 21.9655V21.7135L128.245 21.9835C127.681 22.0795 127.267 22.2295 127.003 22.4335C126.751 22.6255 126.625 22.8535 126.625 23.1175C126.625 23.3215 126.685 23.4955 126.805 23.6395C126.925 23.7835 127.081 23.8975 127.273 23.9815C127.465 24.0535 127.681 24.0895 127.921 24.0895Z" fill="#EC5863"/>
<path d="M14.1999 4.76949C15.6222 4.27428 17.1876 4.94822 17.6955 6.27413C18.0843 7.28926 17.74 8.3914 16.9202 9.07506L17.366 10.2824L18.0732 11.0959C18.2346 11.2821 18.4792 11.3714 18.7241 11.3418C19.3843 11.2619 20.0405 11.26 20.6833 11.3285C20.9011 11.352 21.1176 11.2806 21.2737 11.1294L21.7821 10.6386L22.1557 9.54904C21.8354 9.11117 21.7262 8.53182 21.9147 7.98185C22.2344 7.04956 23.2835 6.56925 24.2179 6.95288C25.0229 7.28296 25.4621 8.17609 25.2281 9.00609C25.0794 9.53475 24.7015 9.93025 24.2358 10.1255L23.8222 11.333L23.9182 11.9989C23.9512 12.2278 24.0878 12.4279 24.2871 12.5481C24.957 12.9543 25.5726 13.4506 26.1132 14.0239C26.2949 14.2169 26.5656 14.3 26.8255 14.2482L28.1634 13.9825L29.6739 13.1488C29.6804 12.4073 30.0766 11.6911 30.7754 11.3053C31.8319 10.7224 33.172 11.1177 33.7374 12.1901C34.2479 13.1576 33.9307 14.3721 33.0103 14.9655C32.2916 15.4281 31.4136 15.4096 30.7352 15.0123L29.2157 15.8505L28.3679 16.7488C28.1404 16.9898 28.0598 17.331 28.1474 17.6508C28.1479 17.6527 28.1482 17.6539 28.1487 17.6558C28.2985 18.2069 28.3898 18.7606 28.4282 19.3094C28.4504 19.6363 28.6365 19.9307 28.9273 20.0875L30.0368 20.6854L32.2347 21.1025C32.6215 20.7668 33.1547 20.605 33.7001 20.708C34.678 20.8938 35.309 21.8598 35.0603 22.8307C34.8464 23.6622 34.0256 24.2145 33.1661 24.104C32.58 24.0286 32.1062 23.6765 31.8513 23.2039L29.6392 22.7845L28.2755 22.9476C28.0241 22.9782 27.8049 23.1347 27.7027 23.3642C27.2962 24.2701 26.7346 25.103 26.0406 25.8216C25.8682 26.0001 25.8038 26.2561 25.8669 26.4959L26.2083 27.8017L27.0474 29.1082C27.9678 28.9724 28.9264 29.3699 29.4593 30.1999C30.1757 31.3148 29.8543 32.7889 28.7436 33.5055C27.6337 34.2219 26.1209 33.9067 25.3906 32.8056C24.8792 32.0348 24.8719 31.085 25.284 30.3321L24.3931 28.9454L23.2991 28.0497C23.1371 27.9163 22.9167 27.8807 22.7194 27.9504C22.5004 28.0278 22.2772 28.0969 22.0488 28.1573C20.808 28.485 19.5564 28.5254 18.3656 28.3215C18.191 28.292 18.0127 28.3412 17.8794 28.4561L17.2941 28.9617L16.86 30.0288C17.1557 30.4839 17.2322 31.0679 17.0134 31.6063C16.6417 32.5199 15.5671 32.9415 14.6557 32.5072C13.8708 32.1334 13.4818 31.2175 13.7618 30.4017C13.9401 29.8821 14.3389 29.5081 14.8151 29.3391L15.2959 28.1563L15.2044 27.1167C14.3325 26.5728 13.5562 25.8753 12.9209 25.0515L11.4316 25.1952L10.0386 25.8784C10.0493 26.8085 9.56962 27.6926 8.72562 28.1194C7.53303 28.722 6.06582 28.1841 5.4489 26.9174C4.83215 25.6513 5.29812 24.1363 6.49072 23.5337C7.38319 23.0826 8.42883 23.2701 9.1573 23.9241L10.471 23.2794L11.3818 22.3078C11.4413 22.2441 11.4632 22.1546 11.4405 22.0709L11.4401 22.0696C11.0156 20.5077 11.0558 18.9297 11.4763 17.48C11.4989 17.4005 11.4817 17.3146 11.4277 17.2512L10.6388 16.3148L8.94115 15.4267C8.47434 15.6303 7.9205 15.6288 7.43298 15.3735C6.55225 14.9122 6.23323 13.8085 6.75619 12.9534C7.21531 12.2037 8.19556 11.9205 8.99264 12.3066C9.50858 12.5565 9.84196 13.0226 9.94118 13.5377L11.6389 14.4258L12.8463 14.5409C12.9302 14.5491 13.0118 14.5141 13.0649 14.4494C13.6112 13.7779 14.262 13.1855 15.0016 12.6998C15.2045 12.5659 15.3304 12.3436 15.3332 12.1012L15.3437 11.0117L14.8682 9.72512C13.8422 9.64987 12.9131 9.0306 12.5436 8.06639C12.0357 6.74049 12.7773 5.26407 14.1999 4.76949Z" fill="#EC5863"/>
<path d="M25.9805 18.2281C25.0586 14.8359 21.5415 12.8177 18.1249 13.7203C14.7084 14.6228 12.6861 18.1043 13.608 21.4964C14.53 24.8885 18.047 26.9067 21.4636 26.0042C24.8802 25.1017 26.9025 21.6202 25.9805 18.2281Z" fill="#F58A97"/>
<path d="M20.9499 24.1279C17.8509 24.9481 14.6712 23.37 13.4172 20.543C13.4529 20.8606 13.5133 21.1795 13.5997 21.4977C14.5197 24.8892 18.0378 26.9047 21.4577 25.9996C24.8776 25.0945 26.904 21.6116 25.984 18.2202C25.8976 17.902 25.7885 17.5959 25.6587 17.3032C26.0037 20.3708 24.0489 23.3078 20.9499 24.1279Z" fill="#F07281"/>
<path d="M11.3214 33.1714C11.0591 32.2058 10.0577 31.6316 9.08468 31.8888C8.11167 32.1459 7.5355 33.1372 7.79778 34.1027C8.06005 35.0683 9.06146 35.6426 10.0345 35.3854C11.0075 35.1282 11.5837 34.137 11.3214 33.1714Z" fill="#EB5569"/>
<path d="M34.1088 27.6382C33.9356 27.0004 33.2741 26.6211 32.6315 26.791C31.9888 26.9609 31.6082 27.6156 31.7814 28.2534C31.9547 28.8911 32.6161 29.2704 33.2588 29.1006C33.9015 28.9307 34.2821 28.276 34.1088 27.6382Z" fill="#EB5569"/>
<path d="M30.8403 5.80511C30.5851 4.86573 29.6109 4.30704 28.6642 4.55725C27.7176 4.80747 27.1571 5.77182 27.4122 6.71121C27.6674 7.65059 28.6416 8.20927 29.5883 7.95906C30.5349 7.70885 31.0955 6.74449 30.8403 5.80511Z" fill="#EB5569"/>
<path d="M20.1931 21.776C19.9552 20.9002 19.0469 20.3793 18.1643 20.6126C17.2818 20.8459 16.7592 21.745 16.9971 22.6208C17.235 23.4965 18.1433 24.0174 19.0258 23.7841C19.9084 23.5509 20.431 22.6518 20.1931 21.776Z" fill="#EB5569"/>
<path d="M24.3092 19.3208C24.1472 18.7246 23.529 18.3701 22.9283 18.5289C22.3276 18.6877 21.9719 19.2996 22.1338 19.8957C22.2957 20.4919 22.9139 20.8464 23.5147 20.6876C24.1154 20.5288 24.4711 19.9169 24.3092 19.3208Z" fill="#EB5569"/>
<path d="M19.9564 16.8463C19.8205 16.3458 19.3013 16.0481 18.7969 16.1814C18.2925 16.3147 17.9938 16.8286 18.1297 17.3291C18.2657 17.8297 18.7848 18.1274 19.2893 17.9941C19.7937 17.8608 20.0924 17.3469 19.9564 16.8463Z" fill="#EB5569"/>
</svg>
